<?xml version="1.0" standalone="no"?>
<!DOCTYPE svg PUBLIC "-//W3C//DTD SVG 1.1//EN" "http://www.w3.org/Graphics/SVG/1.1/DTD/svg11.dtd" >
<svg>
<metadata>
Created by FontForge 20120731 at Thu Jul  4 10:36:17 2013
 By Stefan Warting
1991 Erik Spiekermann, published by Fontshop International for the FontFont library.
</metadata>
<defs>
<font id="MetaNormalLF-Italic" horiz-adv-x="560" >
  <font-face 
    font-family="Meta"
    font-weight="400"
    font-style="italic"
    font-stretch="normal"
    units-per-em="1000"
    panose-1="0 0 0 0 0 0 0 0 0 0"
    ascent="800"
    descent="-200"
    x-height="498"
    cap-height="686"
    bbox="-231 -208 1168 925"
    underline-thickness="20"
    underline-position="-132"
    slope="-12"
    stemh="60"
    stemv="86"
    unicode-range="U+0020-FB02"
  />
<missing-glyph horiz-adv-x="225" 
 />
    <glyph glyph-name=".notdef" horiz-adv-x="225" 
 />
    <glyph glyph-name="space" unicode=" " horiz-adv-x="225" 
 />
    <glyph glyph-name="exclam" unicode="!" horiz-adv-x="284" 
d="M279 699l-126 -501h-60l85 488zM165 56c0 -35 -27 -63 -61 -63s-61 28 -61 62s27 61 61 61s61 -27 61 -60z" />
    <glyph glyph-name="quotedbl" unicode="&#x22;" horiz-adv-x="399" 
d="M410 708l-51 -240h-72l51 240h72zM263 708l-51 -240h-72l51 240h72z" />
    <glyph glyph-name="numbersign" unicode="#" horiz-adv-x="571" 
d="M583 431h-114l-53 -152h90v-66h-115l-75 -213h-67l75 213h-126l-75 -213h-67l75 213h-91v66h116l52 152h-91v66h115l75 211h67l-75 -211h126l75 211h67l-75 -211h91v-66zM402 431h-126l-53 -152h126z" />
    <glyph glyph-name="dollar" unicode="$" horiz-adv-x="532" 
d="M548 642l-43 -61c-45 33 -81 48 -128 52l-52 -243l33 -14c84 -36 113 -90 113 -172c0 -108 -85 -197 -232 -214l-20 -97h-59l20 94c-71 1 -126 18 -180 54l40 65c48 -33 91 -50 154 -52l59 276l-25 10c-81 33 -117 80 -117 162c0 108 93 187 221 198l18 83h59l-18 -83
c60 -5 115 -26 157 -58zM318 631c-72 -11 -121 -55 -121 -112c0 -52 17 -78 74 -105zM385 192c0 52 -17 85 -78 114l-53 -248c81 16 131 69 131 134z" />
    <glyph glyph-name="percent" unicode="%" horiz-adv-x="850" 
d="M725 686l-481 -686h-66l481 686h66zM799 212c0 -137 -87 -222 -203 -222c-77 0 -129 39 -129 124c0 123 85 218 201 218c88 0 131 -52 131 -120zM429 573c0 -137 -87 -222 -203 -222c-77 0 -129 39 -129 124c0 123 85 218 201 218c88 0 131 -52 131 -120zM731 203
c0 49 -25 74 -76 74c-82 0 -119 -69 -119 -161c0 -53 28 -71 75 -71c78 0 120 69 120 158zM361 564c0 49 -25 74 -76 74c-82 0 -119 -69 -119 -161c0 -53 28 -71 75 -71c78 0 120 69 120 158z" />
    <glyph glyph-name="ampersand" unicode="&#x26;" horiz-adv-x="675" 
d="M610 0h-103l-53 65c-50 -49 -131 -80 -211 -80c-124 0 -199 56 -199 151c0 74 31 147 179 208c-50 54 -62 93 -62 131c0 92 82 181 212 181c93 0 154 -52 154 -122c0 -66 -40 -124 -117 -164l-66 -34l126 -158c28 33 53 155 53 155h69c-19 -95 -42 -153 -83 -209z
M443 527c0 44 -33 71 -81 71s-115 -36 -115 -95c0 -51 8 -65 59 -122c51 22 94 50 113 76c14 20 24 44 24 70zM421 110l-158 192c-92 -39 -132 -82 -132 -153c0 -56 43 -103 125 -103c67 0 131 29 165 64z" />
    <glyph glyph-name="quoteright" unicode="&#x2019;" horiz-adv-x="261" 
d="M280 623c0 -42 -21 -91 -59 -129c-26 -25 -68 -52 -95 -64l-26 44c43 19 74 54 86 89c-30 0 -52 29 -52 62c1 44 32 73 75 73c40 0 71 -30 71 -75z" />
    <glyph glyph-name="parenleft" unicode="(" horiz-adv-x="322" 
d="M452 725c-78 -40 -130 -78 -164 -130c-40 -60 -73 -145 -99 -268c-16 -74 -26 -144 -26 -205c0 -108 29 -184 106 -235l-29 -42c-93 47 -154 144 -154 279c0 66 10 140 22 197c36 173 91 270 166 344c49 48 110 86 163 105z" />
    <glyph glyph-name="parenright" unicode=")" horiz-adv-x="322" 
d="M267 493c0 -66 -10 -140 -22 -197c-36 -173 -91 -270 -166 -344c-49 -48 -110 -86 -163 -105l-15 49c78 40 130 78 164 130c40 60 73 145 99 268c16 74 26 144 26 205c0 108 -29 184 -106 235l29 38c93 -47 154 -144 154 -279z" />
    <glyph glyph-name="asterisk" unicode="*" horiz-adv-x="458" 
d="M488 549l-141 -48l89 -119l-49 -38l-90 123l-87 -123l-50 38l87 119l-141 48l19 58l142 -48v149h60v-149l142 48z" />
    <glyph glyph-name="plus" unicode="+" horiz-adv-x="529" 
d="M490 286l-16 -72h-175l-38 -178h-76l38 178h-177l16 72h176l38 178h76l-38 -178h176z" />
    <glyph glyph-name="comma" unicode="," horiz-adv-x="280" 
d="M168 50c0 -42 -21 -90 -59 -129c-31 -32 -68 -52 -95 -64l-26 44c43 19 74 54 86 89c-30 0 -52 29 -52 62c1 44 32 73 75 73c40 0 71 -30 71 -75z" />
    <glyph glyph-name="hyphen" unicode="-" horiz-adv-x="331" 
d="M276 305l-16 -76h-191l16 76h191z" />
    <glyph glyph-name="period" unicode="." horiz-adv-x="276" 
d="M167 56c0 -38 -31 -69 -67 -69c-38 0 -67 31 -67 69c0 37 29 66 66 66c38 0 68 -29 68 -66z" />
    <glyph glyph-name="slash" unicode="/" horiz-adv-x="403" 
d="M476 757l-451 -905h-66l451 905h66z" />
    <glyph glyph-name="zero" unicode="0" 
d="M545 440c0 -145 -43 -267 -101 -340c-63 -80 -130 -116 -216 -116c-94 0 -165 76 -165 235c0 141 50 262 119 343c56 66 119 104 192 104c93 0 171 -66 171 -226zM462 455c0 93 -31 148 -90 148c-40 0 -86 -18 -134 -85c-56 -78 -92 -223 -92 -326c0 -97 43 -147 94 -147
c45 0 98 33 139 94c47 70 83 194 83 316z" />
    <glyph glyph-name="one" unicode="1" 
d="M457 653l-126 -590h101l-13 -63h-284l13 63h104l106 494c-38 -26 -86 -52 -174 -88l-10 49l221 135h62z" />
    <glyph glyph-name="two" unicode="2" 
d="M542 509c0 -70 -34 -138 -98 -206c-78 -82 -224 -205 -279 -243c0 0 49 4 86 4h200l-22 -64h-387l10 45c44 27 100 72 180 143c154 138 221 227 221 303c0 75 -40 105 -100 105c-45 0 -89 -19 -163 -71l-30 46c85 64 153 94 224 94c91 0 158 -57 158 -156z" />
    <glyph glyph-name="three" unicode="3" 
d="M528 533c0 -86 -64 -156 -155 -180c69 -11 110 -72 110 -131c0 -52 -30 -110 -77 -154c-73 -69 -182 -101 -316 -101c-17 0 -37 1 -49 3l-9 58c11 -2 31 -3 51 -3c87 0 165 8 231 57c48 36 82 91 82 141c0 44 -23 83 -63 96c-30 10 -59 11 -129 10l12 56
c80 -1 116 2 144 12c46 17 81 65 81 123c0 51 -39 79 -99 79c-54 0 -113 -27 -171 -65l-27 47c85 57 150 83 226 83c99 0 158 -57 158 -131z" />
    <glyph glyph-name="four" unicode="4" 
d="M518 187l-13 -62h-55c-14 0 -27 1 -27 1s-4 -18 -8 -39l-19 -91l-82 -23l24 113c4 18 10 40 10 40s-18 -1 -40 -1h-258l13 62l336 468h87l-292 -408c-23 -32 -50 -63 -50 -63s23 3 40 3h155c12 0 22 -1 22 -1s3 22 4 28c4 17 9 33 15 55l50 177l66 19l-53 -248
c-4 -18 -7 -31 -7 -31s12 1 23 1h59z" />
    <glyph glyph-name="five" unicode="5" 
d="M545 646l-26 -66h-216l-59 -193c16 3 46 5 72 5c105 0 173 -63 173 -158c0 -155 -158 -270 -345 -270c-30 0 -50 4 -71 10l-2 62c14 -8 40 -14 72 -14c157 0 259 109 259 206c0 65 -46 104 -125 104c-49 0 -100 -9 -132 -22l104 336h296z" />
    <glyph glyph-name="six" unicode="6" 
d="M542 635c-116 -34 -217 -98 -274 -166c-28 -33 -50 -64 -74 -119c28 22 87 48 156 48c90 0 161 -64 161 -164c0 -151 -120 -251 -260 -251c-112 0 -184 83 -184 201c0 114 51 237 156 336c102 96 205 143 309 172zM421 228c0 77 -41 110 -100 110c-45 0 -96 -19 -146 -53
c-19 -53 -21 -74 -21 -109c0 -78 43 -132 110 -132c92 0 157 71 157 184z" />
    <glyph glyph-name="seven" unicode="7" 
d="M599 646l-11 -76c-140 -150 -316 -384 -390 -579l-101 -25c64 187 287 494 424 616c0 0 -58 -2 -93 -2h-264l29 66h406z" />
    <glyph glyph-name="eight" unicode="8" 
d="M561 541c0 -82 -76 -156 -175 -193l49 -25c44 -22 77 -66 77 -113c0 -122 -102 -227 -260 -227c-119 0 -196 70 -196 159c0 108 101 177 182 205c-62 33 -89 75 -89 125c0 98 86 193 240 193c104 0 172 -57 172 -124zM484 530c0 45 -38 78 -108 78
c-86 0 -147 -48 -147 -118c0 -51 26 -81 106 -115c105 50 149 100 149 155zM431 192c0 19 -5 34 -17 49c-19 23 -50 40 -130 80c-92 -41 -147 -92 -147 -179c0 -61 48 -100 123 -100c105 0 171 58 171 150z" />
    <glyph glyph-name="nine" unicode="9" 
d="M561 468c0 -114 -50 -246 -155 -345c-102 -96 -232 -156 -351 -176l-31 50c125 20 265 100 335 183c28 33 43 50 67 105c-41 -32 -88 -52 -157 -52c-85 0 -156 67 -156 177c0 151 121 256 261 256c116 0 187 -68 187 -198zM471 473c0 78 -35 132 -110 132
c-92 0 -158 -76 -158 -189c0 -77 36 -123 95 -123c45 0 96 19 146 53c19 53 27 92 27 127z" />
    <glyph glyph-name="colon" unicode=":" horiz-adv-x="295" 
d="M243 372c0 -38 -31 -69 -67 -69c-38 0 -67 31 -67 69c0 37 29 66 66 66c38 0 68 -29 68 -66zM176 56c0 -38 -31 -69 -67 -69c-38 0 -67 31 -67 69c0 37 29 66 66 66c38 0 68 -29 68 -66z" />
    <glyph glyph-name="semicolon" unicode=";" horiz-adv-x="311" 
d="M243 372c0 -38 -31 -69 -67 -69c-38 0 -67 31 -67 69c0 37 29 66 66 66c38 0 68 -29 68 -66zM188 50c0 -42 -21 -91 -59 -129c-26 -25 -68 -52 -95 -64l-26 44c43 19 74 54 86 89c-30 0 -52 29 -52 62c1 44 32 73 75 73c40 0 71 -30 71 -75z" />
    <glyph glyph-name="less" unicode="&#x3c;" horiz-adv-x="320" 
d="M340 512l-210 -216l110 -213l-70 -40l-136 257l245 257z" />
    <glyph glyph-name="equal" unicode="=" horiz-adv-x="623" 
d="M611 414l-14 -66h-522l14 66h522zM578 258l-14 -66h-522l14 66h522z" />
    <glyph glyph-name="greater" unicode="&#x3e;" horiz-adv-x="320" 
d="M315 300l-245 -257l-61 45l210 221l-110 208l70 40z" />
    <glyph glyph-name="question" unicode="?" horiz-adv-x="434" 
d="M453 571c0 -57 -39 -116 -125 -173c-75 -50 -98 -100 -98 -176h-67c-2 86 22 162 115 219c68 42 93 77 93 111c0 50 -31 75 -81 75c-45 0 -85 -13 -139 -46l-26 53c58 39 122 61 181 61c99 0 147 -48 147 -124zM229 54c0 -35 -27 -63 -61 -63s-61 28 -61 62s27 61 61 61
s61 -27 61 -60z" />
    <glyph glyph-name="at" unicode="@" horiz-adv-x="906" 
d="M845 277c0 -177 -102 -291 -217 -291c-92 0 -113 64 -104 117c-30 -53 -93 -105 -161 -105c-54 0 -111 46 -111 143c0 160 91 312 264 312c48 0 88 -13 123 -32c-6 -21 -17 -63 -23 -92l-38 -181c-17 -80 -2 -109 53 -109c81 0 143 106 143 238c0 165 -127 294 -316 294
c-202 0 -322 -178 -322 -367c0 -187 130 -314 304 -314c54 0 104 8 137 19l13 -54c-39 -13 -95 -20 -150 -20c-207 0 -376 131 -376 369c0 236 160 421 394 421c218 0 387 -137 387 -348zM560 387c-13 8 -30 14 -51 14c-135 0 -187 -150 -187 -264c0 -58 21 -80 62 -80
c47 0 116 46 136 141z" />
    <glyph glyph-name="A" unicode="A" horiz-adv-x="563" 
d="M513 0h-89l-20 211h-256l-111 -211h-87l375 686h107zM397 278l-35 338s-25 -51 -43 -85l-135 -253h213z" />
    <glyph glyph-name="B" unicode="B" horiz-adv-x="585" 
d="M573 536c0 -84 -52 -146 -156 -173c83 -15 117 -72 117 -146c0 -60 -33 -117 -88 -162c-53 -43 -104 -55 -229 -55h-177l146 686h177c165 0 210 -66 210 -150zM481 522c0 59 -32 95 -124 95h-107l-48 -226h124c49 0 85 12 109 30c30 24 46 58 46 101zM444 216
c-1 64 -27 107 -135 107h-121l-55 -256h135c58 0 96 13 124 36c29 23 53 65 52 113z" />
    <glyph glyph-name="C" unicode="C" horiz-adv-x="553" 
d="M600 638l-46 -51c-35 30 -71 42 -121 42c-79 0 -147 -41 -196 -118c-51 -78 -81 -190 -81 -278c0 -109 55 -175 162 -175c51 0 92 13 143 44l32 -57c-63 -36 -135 -56 -203 -56c-137 0 -219 98 -219 248c0 115 42 250 124 341c66 74 159 117 247 117
c64 0 119 -21 158 -57z" />
    <glyph glyph-name="D" unicode="D" horiz-adv-x="625" 
d="M599 433c0 -119 -67 -281 -144 -350c-65 -59 -133 -83 -236 -83h-179l146 686h147c101 0 149 -11 198 -53c46 -39 68 -105 68 -200zM510 423c0 62 -7 103 -27 134c-33 53 -75 62 -147 62h-82l-117 -551h73c93 0 157 21 198 71c68 84 102 207 102 284z" />
    <glyph glyph-name="E" unicode="E" horiz-adv-x="502" 
d="M561 686l-26 -68h-281l-47 -225h235l-16 -71h-235l-53 -251h302l-15 -71h-385l146 686h375z" />
    <glyph glyph-name="F" unicode="F" horiz-adv-x="431" 
d="M547 686l-28 -68h-265l-47 -225h220l-15 -67h-220l-69 -326h-83l146 686h361z" />
    <glyph glyph-name="G" unicode="G" horiz-adv-x="633" 
d="M616 628l-41 -51c-46 37 -89 49 -142 49c-66 0 -126 -25 -170 -79c-63 -78 -103 -213 -103 -316c0 -114 69 -176 168 -176c43 0 82 9 115 27l44 209h-138v68h230l-68 -320c-56 -32 -135 -52 -205 -52c-148 0 -235 106 -235 245c0 133 50 274 141 365c66 66 140 95 233 95
c71 0 127 -21 171 -64z" />
    <glyph glyph-name="H" unicode="H" horiz-adv-x="631" 
d="M637 686l-146 -686h-82l71 332h-289l-71 -332h-80l146 686h80l-61 -287h289l61 287h82z" />
    <glyph glyph-name="I" unicode="I" horiz-adv-x="260" 
d="M266 686l-146 -686h-80l146 686h80z" />
    <glyph glyph-name="J" unicode="J" horiz-adv-x="262" 
d="M268 686l-121 -569c-16 -74 -30 -120 -58 -157c-31 -39 -78 -70 -135 -88l-29 51c40 15 76 40 96 67c18 23 29 55 44 125l121 571h82z" />
    <glyph glyph-name="K" unicode="K" horiz-adv-x="551" 
d="M622 663l-324 -306l198 -345l-86 -27l-206 378l356 345zM269 686l-146 -686h-83l146 686h83z" />
    <glyph glyph-name="L" unicode="L" horiz-adv-x="453" 
d="M408 69l-26 -69h-342l146 686h82l-131 -617h271z" />
    <glyph glyph-name="M" unicode="M" horiz-adv-x="806" 
d="M773 686l-87 -686h-82l67 503c6 44 20 117 20 117c-14 -34 -36 -81 -50 -108l-256 -512h-70l-32 487c-3 52 -6 86 -6 134c0 0 -24 -91 -36 -133l-142 -488h-79l206 686h120l30 -448c3 -48 4 -67 1 -120c24 58 32 78 49 112l226 456h121z" />
    <glyph glyph-name="N" unicode="N" horiz-adv-x="636" 
d="M642 686l-146 -686h-86l-131 420c-26 83 -43 165 -43 165s-12 -98 -30 -187l-81 -398h-85l146 686h95l135 -438c21 -68 33 -144 33 -144s16 110 36 209l76 373h81z" />
    <glyph glyph-name="O" unicode="O" horiz-adv-x="676" 
d="M649 466c0 -162 -55 -333 -165 -417c-60 -46 -116 -62 -198 -62c-142 0 -214 94 -214 243c0 148 57 299 135 378c60 61 126 90 227 90c135 0 215 -84 215 -232zM560 474c0 96 -42 158 -140 158c-72 0 -128 -31 -164 -80c-56 -75 -94 -200 -94 -341
c0 -111 52 -161 142 -161c58 0 101 21 140 59c68 68 116 243 116 365z" />
    <glyph glyph-name="P" unicode="P" horiz-adv-x="547" 
d="M573 527c0 -80 -29 -151 -96 -204c-42 -34 -98 -50 -179 -50h-120l-58 -273h-80l146 686h178c158 0 209 -76 209 -159zM484 508c0 72 -37 109 -146 109h-87l-59 -277h115c58 0 87 11 115 37c42 38 62 87 62 131z" />
    <glyph glyph-name="Q" unicode="Q" horiz-adv-x="677" 
d="M650 466c0 -162 -55 -333 -165 -417c-23 -18 -52 -34 -76 -44c26 -9 59 -28 81 -42c17 -11 59 -28 100 -28c18 0 36 3 42 5l-24 -54c-13 -6 -32 -10 -61 -10c-35 0 -87 23 -135 52c-55 34 -85 50 -130 59c-139 2 -209 96 -209 243c0 148 52 293 135 378
c60 61 126 90 227 90c135 0 215 -84 215 -232zM561 474c0 96 -42 158 -140 158c-72 0 -128 -31 -164 -80c-56 -75 -94 -233 -94 -341c0 -111 52 -161 142 -161c58 0 101 21 140 59c68 68 116 243 116 365z" />
    <glyph glyph-name="R" unicode="R" horiz-adv-x="534" 
d="M551 526c0 -129 -103 -217 -226 -217h-10c32 -32 65 -76 106 -159c19 -38 46 -102 57 -138l-72 -24c-17 42 -33 76 -57 128c-32 69 -58 113 -86 152c-25 35 -41 40 -75 41l-66 -309h-82l146 686h150c150 0 215 -50 215 -160zM464 511c0 75 -39 106 -131 106h-79l-54 -257
h73c61 0 99 7 132 35c31 26 59 68 59 116z" />
    <glyph glyph-name="S" unicode="S" horiz-adv-x="551" 
d="M558 642l-43 -61c-52 38 -92 53 -151 53c-92 0 -155 -49 -155 -115c0 -56 18 -81 87 -111l72 -31c84 -36 113 -91 113 -173c0 -120 -105 -217 -282 -217c-76 0 -133 17 -189 54l40 65c50 -35 95 -52 164 -52c110 0 179 60 179 138c0 57 -18 89 -93 120l-62 26
c-81 34 -117 82 -117 164c0 117 109 199 253 199c70 0 136 -22 184 -59z" />
    <glyph glyph-name="T" unicode="T" horiz-adv-x="454" 
d="M570 686l-20 -69h-186l-131 -617h-79l131 617h-184l15 69h454z" />
    <glyph glyph-name="U" unicode="U" horiz-adv-x="625" 
d="M636 686l-101 -477c-21 -98 -36 -134 -86 -171c-50 -36 -105 -50 -183 -50c-111 0 -192 44 -192 147c0 19 2 57 9 91l98 460h81l-93 -439c-12 -57 -15 -86 -15 -105c0 -53 44 -84 121 -84c57 0 103 15 130 43s37 53 51 117l99 468h81z" />
    <glyph glyph-name="V" unicode="V" horiz-adv-x="567" 
d="M653 686l-381 -686h-81l-85 686h85l52 -440c7 -60 8 -133 7 -153c8 17 32 69 72 143l243 450h88z" />
    <glyph glyph-name="W" unicode="W" horiz-adv-x="792" 
d="M878 686l-303 -686h-107l-4 381c-1 70 1 134 6 195c-20 -54 -54 -137 -76 -189l-166 -387h-106l-16 686h84l2 -401c0 -81 -4 -142 -8 -209c23 60 52 130 82 199l178 411h93l4 -398c1 -84 1 -166 -4 -212c17 47 52 135 85 212l170 398h86z" />
    <glyph glyph-name="X" unicode="X" horiz-adv-x="481" 
d="M567 686l-249 -328l144 -358h-94l-111 295l-218 -295h-100l288 368l-121 318h91l89 -249l181 249h100z" />
    <glyph glyph-name="Y" unicode="Y" horiz-adv-x="529" 
d="M625 686l-312 -419l-57 -267h-85l58 272l-133 414h97l74 -262c6 -22 15 -54 19 -77c15 23 33 49 53 77l188 262h98z" />
    <glyph glyph-name="Z" unicode="Z" horiz-adv-x="513" 
d="M556 621l-392 -486c-20 -25 -36 -43 -56 -66c24 1 36 1 59 1h272l-26 -70h-409v63l401 489c18 21 39 47 58 66c-19 -1 -41 -1 -71 -1h-256l28 69h392v-65z" />
    <glyph glyph-name="bracketleft" unicode="[" horiz-adv-x="275" 
d="M361 732l-13 -60h-93l-163 -768h93l-13 -60h-165l189 888h165z" />
    <glyph glyph-name="backslash" unicode="\" horiz-adv-x="406" 
d="M330 -23l-70 -16l-138 770l70 14z" />
    <glyph glyph-name="bracketright" unicode="]" horiz-adv-x="275" 
d="M291 732l-189 -888h-165l13 60h93l163 768h-93l13 60h165z" />
    <glyph glyph-name="asciicircum" unicode="^" horiz-adv-x="628" 
d="M576 275h-74l-105 349l-253 -349h-74l315 433h60z" />
    <glyph glyph-name="underscore" unicode="_" horiz-adv-x="498" 
d="M433 -75l-10 -50h-500l10 50h500z" />
    <glyph glyph-name="quoteleft" unicode="&#x2018;" horiz-adv-x="261" 
d="M303 667c-43 -19 -74 -54 -86 -89c30 0 52 -29 52 -62c-1 -44 -32 -73 -75 -73c-40 0 -71 30 -71 75c0 42 21 91 59 129c26 25 68 52 95 64z" />
    <glyph glyph-name="a" unicode="a" horiz-adv-x="520" 
d="M484 471c-7 -24 -19 -71 -26 -104l-43 -206c-18 -84 -8 -105 17 -132l-62 -48c-30 31 -41 60 -37 109c-34 -60 -96 -99 -173 -99c-61 0 -119 48 -119 158c0 98 38 212 104 279c52 53 122 84 199 84c54 0 102 -14 140 -41zM397 435c-15 9 -36 14 -60 14
c-62 0 -103 -22 -145 -72c-50 -60 -70 -155 -70 -229c0 -66 25 -90 72 -90c53 0 113 50 149 120z" />
    <glyph glyph-name="b" unicode="b" horiz-adv-x="562" 
d="M517 345c0 -119 -48 -227 -116 -292c-45 -43 -104 -65 -161 -65c-62 0 -139 16 -192 61c5 16 14 50 19 75l91 429c12 59 14 119 4 152l83 32c11 -38 8 -101 -7 -173l-14 -67c-5 -25 -16 -63 -24 -92c42 59 115 104 182 104c91 0 135 -61 135 -164zM431 344
c0 59 -26 94 -81 94c-53 0 -108 -40 -164 -112l-51 -242c26 -22 58 -30 105 -30c37 0 85 24 108 50c53 60 83 164 83 240z" />
    <glyph glyph-name="c" unicode="c" horiz-adv-x="440" 
d="M450 469l-37 -61c-31 26 -65 35 -101 35c-39 0 -80 -22 -106 -56c-35 -47 -70 -151 -70 -228c0 -70 31 -108 94 -108c40 0 82 19 119 54l32 -50c-56 -47 -104 -66 -166 -66c-111 0 -163 59 -163 169c0 113 61 242 128 296c47 39 96 57 149 57c50 0 89 -14 121 -42z" />
    <glyph glyph-name="d" unicode="d" horiz-adv-x="561" 
d="M574 717l-119 -556c-18 -82 -9 -101 16 -132l-67 -50c-26 26 -41 52 -37 107c-48 -63 -102 -93 -175 -93c-94 0 -139 60 -139 167c0 101 40 204 111 276c48 49 119 72 173 72c56 0 85 -6 110 -19l51 241zM431 422c-31 16 -49 21 -96 21c-39 0 -89 -22 -120 -55
c-45 -49 -79 -158 -79 -232c0 -64 25 -97 73 -97c58 0 121 33 171 119z" />
    <glyph glyph-name="e" unicode="e" horiz-adv-x="498" 
d="M471 383c0 -42 -18 -78 -46 -104c-42 -39 -106 -57 -215 -57c-19 0 -40 1 -62 2c-5 -23 -7 -44 -7 -63c0 -70 46 -107 99 -107c62 0 99 15 146 57l33 -48c-50 -51 -102 -74 -202 -74c-92 0 -163 66 -163 180c0 96 37 206 110 273c50 47 104 70 164 70
c94 0 143 -51 143 -129zM392 381c0 38 -21 69 -76 69c-64 0 -129 -64 -155 -167c14 -1 36 -1 51 -1c90 0 129 12 155 38c16 16 25 36 25 61z" />
    <glyph glyph-name="f" unicode="f" horiz-adv-x="276" 
d="M423 699l-29 -59c-22 15 -47 23 -74 23c-44 0 -76 -31 -86 -88l-14 -77h138l-35 -59h-114l-90 -453c-18 -92 -39 -146 -77 -194l-64 35c31 43 50 89 65 166l87 446h-51l11 59h51l13 67c13 66 38 109 76 134c27 18 58 25 95 25c43 0 73 -8 98 -25z" />
    <glyph glyph-name="g" unicode="g" 
d="M526 469c-7 -19 -20 -65 -29 -107l-47 -225c-10 -46 -21 -112 -28 -140c-36 -147 -112 -201 -258 -201c-60 0 -112 13 -175 45l29 63c52 -30 95 -42 153 -42c100 0 148 26 171 124l21 91c-50 -65 -101 -86 -175 -86c-84 0 -136 61 -136 168c0 108 51 220 116 279
c55 50 117 75 192 75s116 -12 166 -44zM436 429c-23 11 -48 15 -83 15c-48 0 -90 -14 -129 -51c-47 -44 -88 -159 -88 -232c0 -74 30 -103 81 -103c57 0 114 32 166 120z" />
    <glyph glyph-name="h" unicode="h" horiz-adv-x="557" 
d="M501 416c0 -15 -3 -36 -8 -59l-76 -357h-77l71 336c4 19 8 40 8 51c0 36 -22 54 -54 54c-48 0 -121 -44 -178 -115l-69 -326h-78l117 550c14 67 15 119 5 155l83 32c12 -42 7 -110 -10 -188l-11 -52c-4 -19 -17 -67 -25 -93c59 75 138 105 197 105c65 0 105 -42 105 -93z
" />
    <glyph glyph-name="i" unicode="i" horiz-adv-x="263" 
d="M282 652c0 -34 -27 -61 -61 -61s-61 27 -61 60c0 34 27 62 61 62s61 -27 61 -61zM231 509l-108 -509h-83l106 496z" />
    <glyph glyph-name="j" unicode="j" horiz-adv-x="259" 
d="M280 661c-1 -34 -27 -62 -61 -62s-62 27 -62 60c1 35 28 63 62 63s61 -28 61 -61zM228 510l-106 -497c-27 -125 -71 -177 -161 -211l-28 52c68 29 89 61 111 163l101 477z" />
    <glyph glyph-name="k" unicode="k" horiz-adv-x="461" 
d="M494 474l-222 -193l169 -265l-77 -31l-181 303l256 231zM245 737c10 -32 9 -99 -5 -166l-122 -571h-78l118 554c12 56 15 118 4 151z" />
    <glyph glyph-name="l" unicode="l" horiz-adv-x="259" 
d="M245 737c13 -41 5 -122 -8 -182l-95 -445c-3 -14 -5 -27 -5 -36c0 -16 7 -24 21 -24c6 0 14 0 19 2l5 -51c-21 -9 -40 -11 -61 -11c-41 0 -66 20 -66 59c0 13 2 27 5 43l98 463c14 67 13 118 4 150z" />
    <glyph glyph-name="m" unicode="m" horiz-adv-x="802" 
d="M746 414c0 -14 -4 -38 -8 -58l-76 -356h-80l74 348c4 17 6 34 6 48c0 29 -15 44 -49 44c-39 0 -104 -48 -157 -113l-70 -327h-79l72 340c5 22 10 49 10 58c0 25 -9 42 -40 42c-38 0 -106 -41 -165 -115l-69 -325h-75l76 357c13 63 15 83 4 122l73 34
c15 -32 15 -72 5 -110c69 80 133 106 184 106c60 0 85 -40 85 -105c68 78 136 107 187 107c60 0 92 -48 92 -97z" />
    <glyph glyph-name="n" unicode="n" horiz-adv-x="546" 
d="M490 410c0 -10 -1 -21 -3 -32l-81 -378h-79l72 337c6 26 8 42 8 54c0 33 -17 50 -48 50c-40 0 -107 -32 -174 -116l-69 -325h-76l76 356c14 64 14 85 4 123l73 34c11 -32 18 -59 5 -110c54 72 129 106 193 106c61 0 99 -38 99 -99z" />
    <glyph glyph-name="o" unicode="o" horiz-adv-x="531" 
d="M492 332c0 -193 -114 -345 -277 -345c-108 0 -169 67 -169 180c0 198 119 346 277 346c116 0 169 -73 169 -181zM406 341c0 79 -45 108 -97 108c-112 0 -177 -125 -177 -287c0 -78 35 -110 98 -110c115 0 176 136 176 289z" />
    <glyph glyph-name="p" unicode="p" horiz-adv-x="554" 
d="M509 348c0 -88 -34 -206 -87 -270c-48 -58 -119 -90 -184 -90c-51 0 -86 8 -118 25l-44 -206l-81 -15l121 565c14 67 13 88 3 122l73 34c12 -28 17 -55 8 -106c53 70 126 101 181 101c86 0 128 -63 128 -160zM424 343c0 69 -24 95 -73 95c-50 0 -112 -39 -165 -110
l-52 -245c25 -21 61 -30 103 -30c46 0 98 29 123 66c36 54 64 152 64 224z" />
    <glyph glyph-name="q" unicode="q" horiz-adv-x="556" 
d="M523 469c-7 -19 -20 -65 -29 -107l-117 -549l-78 -16l61 280c-50 -65 -101 -86 -175 -86c-84 0 -132 61 -132 168c0 108 47 220 112 279c55 50 117 75 192 75s116 -12 166 -44zM433 432c-23 11 -48 15 -83 15c-48 0 -90 -17 -129 -54c-47 -44 -84 -159 -84 -232
c0 -74 26 -103 77 -103c57 0 114 32 166 120z" />
    <glyph glyph-name="r" unicode="r" horiz-adv-x="353" 
d="M393 506l-34 -85c-9 3 -16 4 -31 4c-47 0 -98 -41 -146 -113l-66 -312h-76l72 338c16 75 17 105 6 141l73 34c15 -37 16 -60 4 -119c48 73 114 117 161 117c18 0 27 -2 37 -5z" />
    <glyph glyph-name="s" unicode="s" horiz-adv-x="457" 
d="M427 480l-32 -60c-39 21 -73 36 -117 36c-65 0 -113 -27 -113 -74c0 -34 12 -52 54 -70l63 -27c77 -33 105 -71 105 -126c0 -108 -92 -173 -217 -173c-63 0 -128 17 -172 48l32 60c45 -31 93 -47 148 -47c69 0 121 33 121 84c0 41 -14 62 -63 84l-59 26
c-69 30 -97 64 -97 122c0 90 82 155 203 155c52 0 107 -14 144 -38z" />
    <glyph glyph-name="t" unicode="t" horiz-adv-x="296" 
d="M348 498l-31 -59h-108l-62 -292c-5 -22 -7 -40 -7 -54c0 -37 15 -49 50 -49c22 0 36 3 52 10v-50c-28 -13 -57 -20 -92 -20c-58 0 -88 29 -88 81c0 18 3 47 8 73l63 301h-65l11 59h66c10 40 23 88 35 126l85 18c-13 -37 -32 -101 -41 -144h124z" />
    <glyph glyph-name="u" unicode="u" horiz-adv-x="547" 
d="M515 506l-75 -353c-16 -75 -12 -91 13 -124l-61 -50c-28 27 -42 57 -37 110c-62 -74 -128 -106 -190 -106c-66 0 -105 29 -105 100c0 24 4 54 8 73l72 338l80 15l-70 -335c-5 -26 -9 -48 -9 -65c0 -44 13 -59 49 -59c49 0 124 41 178 127l67 316z" />
    <glyph glyph-name="v" unicode="v" horiz-adv-x="451" 
d="M507 497l-293 -502h-77l-73 499l79 17l43 -343c4 -32 6 -63 6 -85h2c12 29 22 49 42 84l184 331z" />
    <glyph glyph-name="w" unicode="w" horiz-adv-x="674" 
d="M721 498l-248 -502h-74l-30 405h-2s-13 -35 -21 -51l-176 -354h-73l-32 498l79 17l10 -329c1 -46 0 -83 0 -83h3s15 36 33 72l159 327h84l17 -331c1 -28 4 -71 4 -73h2c2 2 22 51 30 69l150 335h85z" />
    <glyph glyph-name="x" unicode="x" horiz-adv-x="401" 
d="M448 498l-196 -223l132 -275h-92l-90 215l-179 -215h-95l245 276l-107 222h94l64 -166l131 166h93z" />
    <glyph glyph-name="y" unicode="y" horiz-adv-x="451" 
d="M497 498l-230 -422c-60 -110 -99 -195 -154 -238c-24 -19 -61 -36 -97 -43l-18 53c29 3 65 25 88 46c22 20 43 53 64 106l-32 -4c1 32 -6 129 -12 179l-41 317l82 17l34 -319c5 -47 3 -124 3 -124h2s33 64 54 105l167 327h90z" />
    <glyph glyph-name="z" unicode="z" horiz-adv-x="402" 
d="M414 436l-348 -376h276l-36 -60h-337v60l348 376h-234v62h331v-62z" />
    <glyph glyph-name="braceleft" unicode="{" horiz-adv-x="321" 
d="M407 732l-13 -60h-54c-42 0 -58 -39 -66 -79l-37 -176c-19 -90 -89 -122 -113 -128l-1 -2c23 -3 80 -30 59 -129l-37 -175c-8 -39 -10 -79 32 -79h54l-13 -60h-70c-50 0 -95 44 -78 125l37 175c15 72 -20 114 -62 114l13 60c42 0 95 44 110 113l37 176
c17 81 85 125 132 125h70z" />
    <glyph glyph-name="bar" unicode="|" horiz-adv-x="246" 
d="M267 756l-165 -774h-66l165 774h66z" />
    <glyph glyph-name="braceright" unicode="}" horiz-adv-x="321" 
d="M299 318l-13 -60c-42 0 -95 -42 -110 -114l-37 -175c-17 -81 -82 -125 -132 -125h-70l13 60h54c42 0 58 40 66 79l37 175c21 99 90 126 113 129l1 2c-22 6 -78 38 -59 128l37 176c8 40 10 79 -32 79h-54l13 60h70c47 0 95 -44 78 -125l-37 -176c-15 -69 20 -113 62 -113z
" />
    <glyph glyph-name="asciitilde" unicode="~" horiz-adv-x="599" 
d="M539 324c-40 -42 -83 -88 -145 -88c-36 0 -65 15 -95 30c-35 17 -64 38 -107 38c-44 0 -76 -35 -99 -70l-23 48c39 42 82 88 144 88c36 0 66 -15 95 -30c35 -17 64 -38 107 -38c44 0 76 35 100 70z" />
    <glyph glyph-name="exclamdown" unicode="&#xa1;" horiz-adv-x="285" 
d="M247 438c0 -34 -27 -61 -61 -61s-61 27 -61 60c0 35 27 63 61 63s61 -28 61 -62zM187 295l-85 -488l-101 -13l126 501h60z" />
    <glyph glyph-name="cent" unicode="&#xa2;" horiz-adv-x="444" 
d="M453 457l-54 -54c-22 22 -38 33 -58 37l-82 -386c32 7 62 24 90 51l32 -50c-46 -39 -88 -59 -136 -64l-16 -76h-55l16 75c-57 5 -97 30 -118 74c-23 48 -27 103 -11 177c23 109 69 173 121 215c38 32 76 48 118 53l17 77h55l-17 -77c46 -6 73 -27 98 -52zM286 440
c-30 -8 -60 -27 -80 -53c-26 -35 -47 -90 -62 -163c-21 -99 -1 -158 59 -171z" />
    <glyph glyph-name="sterling" unicode="&#xa3;" horiz-adv-x="541" 
d="M623 658l-61 -57c-25 30 -60 47 -104 47c-99 0 -142 -70 -165 -174l-17 -78h162l-14 -66h-162l-53 -252h246l-17 -78h-438l17 78h108l53 252h-96l14 66h96l17 80c37 174 145 244 266 244c60 0 114 -19 148 -62z" />
    <glyph glyph-name="fraction" unicode="&#x2044;" horiz-adv-x="339" 
d="M557 763l-722 -917h-66l722 917h66z" />
    <glyph glyph-name="yen" unicode="&#xa5;" horiz-adv-x="529" 
d="M625 686l-232 -312h149l-13 -59h-180l-36 -48l-10 -48h206l-13 -59h-206l-34 -160h-85l34 160h-194l13 59h194l11 53l-14 43h-171l13 59h139l-100 312h93l74 -262c6 -22 15 -54 19 -77c15 23 33 49 53 77l188 262h102z" />
    <glyph glyph-name="florin" unicode="&#x192;" horiz-adv-x="280" 
d="M458 695l-38 -55c-21 16 -44 23 -69 23c-42 0 -73 -31 -86 -88l-17 -77h134l-37 -59h-110l-88 -384c-31 -137 -38 -184 -169 -253l-28 56c98 55 97 97 118 190l89 391h-46l9 59h50l18 78c24 105 95 148 171 148c41 0 78 -13 99 -29z" />
    <glyph glyph-name="section" unicode="&#xa7;" horiz-adv-x="517" 
d="M534 632l-77 -38c-11 43 -44 61 -101 61c-67 0 -124 -43 -124 -99c0 -26 14 -50 42 -66l79 -45c63 -36 116 -72 116 -140c0 -71 -52 -126 -115 -158c29 -22 48 -55 48 -93c0 -98 -78 -198 -243 -198c-86 0 -156 38 -171 123l75 33c7 -61 51 -84 117 -84
c87 0 131 47 131 107c0 45 -48 67 -80 86l-105 62c-34 20 -54 56 -54 98c0 83 62 135 134 167c-34 22 -57 51 -57 92c0 111 107 187 220 187c75 0 148 -28 165 -95zM390 285c0 46 -45 74 -79 93l-52 29c-53 -17 -107 -45 -107 -105c0 -39 32 -57 66 -76l80 -45
c42 16 92 56 92 104z" />
    <glyph glyph-name="currency" unicode="&#xa4;" horiz-adv-x="631" 
d="M667 648l-28 -69c-35 30 -63 50 -128 50c-79 0 -134 -41 -184 -118c-15 -23 -28 -49 -39 -79h269l-12 -59h-277c-8 -29 -12 -51 -17 -80h277l-13 -59h-269c-2 -100 40 -178 161 -178c51 0 95 17 144 44l-2 -73c-43 -21 -101 -38 -169 -38c-142 0 -219 108 -218 245h-112
l13 59h104c4 27 9 54 16 80h-103l12 59h111c59 160 169 263 323 263c83 0 124 -31 141 -47z" />
    <glyph glyph-name="quotesingle" unicode="'" horiz-adv-x="252" 
d="M262 708l-51 -240h-72l51 240h72z" />
    <glyph glyph-name="quotedblleft" unicode="&#x201c;" horiz-adv-x="458" 
d="M501 667c-43 -19 -74 -54 -86 -89c30 0 52 -29 52 -62c-1 -44 -32 -73 -75 -73c-40 0 -71 30 -71 75c0 42 22 88 59 129c30 33 68 52 95 64zM303 667c-43 -19 -74 -54 -86 -89c30 0 52 -29 52 -62c-1 -44 -32 -73 -75 -73c-40 0 -71 30 -71 75c0 42 22 88 59 129
c30 33 68 52 95 64z" />
    <glyph glyph-name="guillemotleft" unicode="&#xab;" horiz-adv-x="511" 
d="M501 414l-173 -181l88 -174l-60 -33l-108 218l199 210zM315 414l-173 -181l88 -174l-60 -33l-108 218l199 210z" />
    <glyph glyph-name="guilsinglleft" unicode="&#x2039;" horiz-adv-x="327" 
d="M316 414l-173 -181l88 -174l-60 -33l-108 218l199 210z" />
    <glyph glyph-name="guilsinglright" unicode="&#x203a;" horiz-adv-x="327" 
d="M264 236l-199 -210l-54 40l173 181l-88 174l60 33z" />
    <glyph glyph-name="fi" unicode="&#xfb01;" horiz-adv-x="544" 
d="M563 652c0 -34 -27 -61 -61 -61s-61 27 -61 60c0 34 27 62 61 62s61 -27 61 -61zM511 498l-107 -498h-83l94 439h-206l-90 -453c-18 -92 -39 -146 -77 -194l-64 35c31 43 50 89 65 166l87 446h-51l11 59h51l13 67c13 66 38 109 76 134c27 18 58 25 95 25
c43 0 73 -8 98 -25l-29 -59c-22 15 -47 23 -74 23c-44 0 -76 -31 -86 -88l-14 -77h291z" />
    <glyph glyph-name="fl" unicode="&#xfb02;" horiz-adv-x="544" 
d="M530 737c13 -41 5 -122 -8 -182l-95 -445c-3 -14 -5 -27 -5 -36c0 -16 7 -24 21 -24c6 0 14 0 19 2l5 -51c-21 -9 -40 -11 -61 -11c-41 0 -66 20 -66 59c0 13 2 27 5 43l98 463c14 67 13 118 4 150zM423 699l-29 -59c-22 15 -47 23 -74 23c-44 0 -76 -31 -86 -88l-14 -77
h138l-35 -59h-114l-90 -453c-18 -92 -39 -146 -77 -194l-64 35c31 43 50 89 65 166l87 446h-51l11 59h51l13 67c13 66 38 109 76 134c27 18 58 25 95 25c43 0 73 -8 98 -25z" />
    <glyph glyph-name="endash" unicode="&#x2013;" horiz-adv-x="585" 
d="M551 309l-13 -59h-485l13 59h485z" />
    <glyph glyph-name="dagger" unicode="&#x2020;" horiz-adv-x="466" 
d="M498 524l-25 -69h-150l-97 -455h-79l97 455h-157l15 69h157l34 162h79l-34 -162h160z" />
    <glyph glyph-name="daggerdbl" unicode="&#x2021;" horiz-adv-x="479" 
d="M501 524l-25 -69h-150l-48 -224h157l-14 -69h-157l-35 -162h-79l35 162h-160l24 69h150l48 224h-157l15 69h157l34 162h79l-34 -162h160z" />
    <glyph glyph-name="periodcentered" horiz-adv-x="294" 
d="M221 279c0 -36 -30 -66 -66 -66s-65 30 -65 66c-1 37 29 66 65 66s65 -29 66 -66z" />
    <glyph glyph-name="paragraph" unicode="&#xb6;" horiz-adv-x="593" 
d="M604 708l-178 -834h-72l164 768h-118l-164 -768h-72l94 442c-107 0 -173 63 -173 149c0 146 122 243 276 243h243z" />
    <glyph glyph-name="bullet" unicode="&#x2022;" horiz-adv-x="521" 
d="M462 354c1 -98 -78 -177 -176 -177s-178 79 -178 177c-1 98 79 177 177 177s177 -79 177 -177z" />
    <glyph glyph-name="quotesinglbase" unicode="&#x201a;" horiz-adv-x="260" 
d="M157 50c0 -42 -21 -91 -59 -129c-26 -25 -68 -52 -95 -64l-26 44c43 19 74 54 86 89c-30 0 -52 29 -52 62c1 44 32 73 75 73c40 0 71 -30 71 -75z" />
    <glyph glyph-name="quotedblbase" unicode="&#x201e;" horiz-adv-x="458" 
d="M356 50c0 -42 -21 -91 -59 -129c-26 -25 -68 -52 -95 -64l-26 44c43 19 74 54 86 89c-30 0 -52 29 -52 62c1 44 32 73 75 73c40 0 71 -30 71 -75zM158 50c0 -42 -21 -91 -59 -129c-26 -25 -68 -52 -95 -64l-26 44c43 19 74 54 86 89c-30 0 -52 29 -52 62
c1 44 32 73 75 73c40 0 71 -30 71 -75z" />
    <glyph glyph-name="quotedblright" unicode="&#x201d;" horiz-adv-x="459" 
d="M479 623c0 -42 -21 -91 -59 -129c-26 -25 -68 -52 -95 -64l-26 44c43 19 74 54 86 89c-30 0 -52 29 -52 62c1 44 32 73 75 73c40 0 71 -30 71 -75zM281 623c0 -42 -21 -91 -59 -129c-26 -25 -68 -52 -95 -64l-26 44c43 19 74 54 86 89c-30 0 -52 29 -52 62
c1 44 32 73 75 73c40 0 71 -30 71 -75z" />
    <glyph glyph-name="guillemotright" unicode="&#xbb;" horiz-adv-x="512" 
d="M454 236l-199 -210l-54 40l173 181l-88 174l60 33zM268 236l-199 -210l-54 40l173 181l-88 174l60 33z" />
    <glyph glyph-name="ellipsis" unicode="&#x2026;" horiz-adv-x="767" 
d="M637 56c0 -38 -31 -69 -67 -69c-38 0 -67 31 -67 69c0 37 29 66 66 66c38 0 68 -29 68 -66zM407 56c0 -38 -31 -69 -67 -69c-38 0 -67 31 -67 69c0 37 29 66 66 66c38 0 68 -29 68 -66zM177 56c0 -38 -31 -69 -67 -69c-38 0 -67 31 -67 69c0 37 29 66 66 66
c38 0 68 -29 68 -66z" />
    <glyph glyph-name="perthousand" unicode="&#x2030;" horiz-adv-x="1229" 
d="M1168 212c0 -137 -87 -222 -203 -222c-77 0 -129 39 -129 124c0 123 85 218 201 218c88 0 131 -52 131 -120zM724 686l-481 -686h-66l481 686h66zM798 212c0 -137 -87 -222 -203 -222c-77 0 -129 39 -129 124c0 123 85 218 201 218c88 0 131 -52 131 -120zM428 571
c0 -137 -87 -222 -203 -222c-77 0 -129 39 -129 124c0 123 85 218 201 218c88 0 131 -52 131 -120zM1100 203c0 49 -25 74 -76 74c-82 0 -119 -69 -119 -161c0 -53 28 -71 75 -71c78 0 120 69 120 158zM730 203c0 49 -25 74 -76 74c-82 0 -119 -69 -119 -161
c0 -53 28 -71 75 -71c78 0 120 69 120 158zM360 562c0 49 -25 74 -76 74c-82 0 -119 -69 -119 -161c0 -53 28 -71 75 -71c78 0 120 69 120 158z" />
    <glyph glyph-name="questiondown" unicode="&#xbf;" horiz-adv-x="433" 
d="M331 438c0 -34 -27 -61 -61 -61s-61 27 -61 60c0 35 27 63 61 63s61 -28 61 -62zM313 -143c-58 -39 -122 -61 -181 -61c-99 0 -147 48 -147 124c0 57 39 116 125 173c75 50 98 100 98 176h67c2 -86 -22 -162 -115 -219c-68 -42 -93 -77 -93 -111c0 -50 31 -75 81 -75
c45 0 85 13 139 46z" />
    <glyph glyph-name="grave" unicode="`" horiz-adv-x="319" 
d="M368 612l-26 -47l-223 100l43 77z" />
    <glyph glyph-name="acute" unicode="&#xb4;" horiz-adv-x="340" 
d="M382 665l-225 -100l-26 47l208 130z" />
    <glyph glyph-name="circumflex" unicode="&#x2c6;" horiz-adv-x="381" 
d="M440 605l-36 -44l-120 85l-154 -85l-31 44l197 135z" />
    <glyph glyph-name="tilde" unicode="&#x2dc;" horiz-adv-x="386" 
d="M456 656c-42 -41 -76 -63 -135 -63c-61 0 -61 37 -119 37c-32 0 -51 -17 -77 -39l-19 45c42 41 75 63 134 63c61 0 61 -37 119 -37c32 0 53 17 78 39z" />
    <glyph glyph-name="macron" unicode="&#xaf;" horiz-adv-x="314" 
d="M401 737l-12 -54h-274l12 54h274z" />
    <glyph glyph-name="breve" unicode="&#x2d8;" horiz-adv-x="380" 
d="M457 693c-18 -19 -118 -115 -195 -115c-78 0 -137 96 -146 115l45 44c14 -17 62 -65 125 -65c54 0 130 52 149 65z" />
    <glyph glyph-name="dotaccent" unicode="&#x2d9;" horiz-adv-x="164" 
d="M232 652c0 -34 -27 -61 -61 -61s-61 27 -61 60c0 34 27 62 61 62s61 -27 61 -61z" />
    <glyph glyph-name="dieresis" unicode="&#xa8;" horiz-adv-x="412" 
d="M443 621c0 -29 -23 -53 -51 -53c-29 0 -53 24 -53 53c0 28 23 51 52 51c28 0 52 -23 52 -51zM236 621c0 -29 -22 -53 -51 -53s-52 24 -52 53c0 28 23 51 51 51c29 0 52 -23 52 -51z" />
    <glyph glyph-name="ring" unicode="&#x2da;" horiz-adv-x="254" 
d="M322 659c0 -58 -47 -106 -105 -106c-57 0 -105 48 -105 106s49 106 106 106s104 -48 104 -106zM276 659c0 32 -26 60 -57 60c-34 0 -62 -28 -62 -60s29 -60 60 -60c32 0 59 28 59 60z" />
    <glyph glyph-name="cedilla" unicode="&#xb8;" horiz-adv-x="240" 
d="M136 -114c-8 -38 -52 -83 -116 -83c-30 0 -59 13 -77 24l31 47c24 -12 36 -16 58 -16c18 0 38 11 42 30c5 20 -14 29 -31 29c-18 0 -39 -2 -39 -2l47 97l57 -7l-22 -47c50 -7 58 -36 50 -72z" />
    <glyph glyph-name="hungarumlaut" unicode="&#x2dd;" horiz-adv-x="399" 
d="M476 703l-191 -173l-38 31l165 189zM289 722l-159 -198l-46 21l131 210z" />
    <glyph glyph-name="ogonek" unicode="&#x2db;" horiz-adv-x="240" 
d="M122 -173c-22 -11 -57 -24 -87 -24c-64 0 -89 41 -79 87c13 61 65 109 92 127l45 -29s-63 -42 -74 -92c-4 -19 4 -36 28 -36c22 0 36 2 64 14z" />
    <glyph glyph-name="caron" unicode="&#x2c7;" horiz-adv-x="381" 
d="M459 693l-197 -135l-144 135l36 44l120 -85l154 85z" />
    <glyph glyph-name="emdash" unicode="&#x2014;" horiz-adv-x="812" 
d="M778 309l-13 -59h-712l13 59h712z" />
    <glyph glyph-name="AE" unicode="&#xc6;" horiz-adv-x="811" 
d="M870 686l-25 -68h-276l-47 -225h235l-15 -71h-235l-54 -251h302l-15 -71h-385l45 211h-226l-175 -211h-99l569 686h401zM481 598l-252 -320h185z" />
    <glyph glyph-name="ordfeminine" unicode="&#xaa;" horiz-adv-x="428" 
d="M452 732c-6 -21 -15 -56 -20 -81l-32 -155c-13 -61 -6 -75 15 -98l-52 -40c-23 23 -33 43 -32 74c-27 -40 -72 -66 -126 -66c-46 0 -94 37 -94 122c0 75 28 161 79 212c39 40 95 64 153 64c42 0 79 -10 109 -32zM390 294l-12 -54h-313l12 54h313zM379 701
c-10 6 -25 8 -41 8c-45 0 -77 -15 -108 -52c-37 -45 -51 -114 -51 -169c0 -46 19 -64 52 -64c39 0 83 37 109 89z" />
    <glyph glyph-name="Lslash" unicode="&#x141;" horiz-adv-x="453" 
d="M408 69l-26 -69h-342l65 308l-71 -22l15 72l72 22l65 306h82l-59 -280l190 57l-16 -72l-190 -57l-56 -265h271z" />
    <glyph glyph-name="Oslash" unicode="&#xd8;" horiz-adv-x="661" 
d="M657 726c0 0 -53 -65 -97 -119c22 -37 34 -84 34 -141c0 -162 -55 -333 -165 -417c-60 -46 -116 -62 -198 -62c-58 0 -104 16 -139 45c-41 -50 -92 -113 -92 -113l-45 32l100 123c-25 40 -38 93 -38 156c0 148 57 299 135 378c60 61 126 90 227 90c59 0 108 -16 144 -47
l87 107zM473 589c-23 28 -59 44 -108 44c-72 0 -128 -32 -164 -81c-56 -75 -95 -200 -95 -341c0 -24 3 -46 7 -65zM506 474c0 21 -2 41 -6 58c0 1 -359 -440 -360 -440c25 -29 62 -43 109 -43c58 0 101 22 140 60c68 68 117 243 117 365z" />
    <glyph glyph-name="OE" unicode="&#x152;" horiz-adv-x="866" 
d="M925 685l-25 -68h-281l-48 -224h235l-15 -71h-235l-53 -251h302l-16 -71l-440 -1c-105 0 -152 5 -209 53c-66 56 -83 154 -55 288c26 120 77 207 133 258c75 67 134 87 235 87h472zM534 608c-31 4 -60 7 -87 7c-84 0 -142 -21 -183 -71c-42 -53 -72 -122 -87 -194
c-22 -103 -24 -168 11 -222c27 -43 64 -62 116 -62c27 0 81 1 116 6z" />
    <glyph glyph-name="ordmasculine" unicode="&#xba;" horiz-adv-x="431" 
d="M456 625c0 -146 -87 -262 -211 -262c-83 0 -130 53 -130 139c0 150 90 262 211 262c89 0 130 -56 130 -139zM386 294l-12 -54h-313l12 54h313zM385 632c0 56 -33 77 -70 77c-82 0 -129 -92 -129 -210c0 -57 25 -81 70 -81c84 0 129 101 129 214z" />
    <glyph glyph-name="ae" unicode="&#xe6;" horiz-adv-x="772" 
d="M745 386c0 -42 -19 -79 -47 -105c-42 -39 -106 -59 -215 -59c-19 0 -40 1 -62 2c-5 -23 -7 -44 -7 -63c0 -70 46 -107 99 -107c62 0 101 13 148 55l31 -47c-47 -49 -102 -73 -202 -73c-62 0 -105 29 -137 81c-50 -60 -109 -83 -171 -83c-99 0 -141 57 -141 126
c0 49 18 98 85 140c79 49 221 38 238 36l13 53c6 23 7 41 7 53c0 31 -26 52 -69 52c-48 0 -107 -16 -170 -59l-27 56c75 44 148 67 222 67c57 0 95 -26 109 -71c45 47 100 72 160 72c89 0 136 -48 136 -126zM665 381c0 38 -21 69 -76 69c-64 0 -129 -64 -155 -167
c14 -1 36 -1 51 -1c90 0 129 12 155 38c16 16 25 36 25 61zM352 234c-17 0 -119 10 -167 -17c-40 -22 -63 -54 -63 -90c0 -52 31 -82 76 -82c42 0 78 21 104 52c27 32 40 93 50 137z" />
    <glyph glyph-name="dotlessi" unicode="&#x131;" horiz-adv-x="263" 
d="M231 509l-108 -509h-83l106 496z" />
    <glyph glyph-name="lslash" unicode="&#x142;" horiz-adv-x="259" 
d="M283 430l-15 -72l-78 -25l-48 -223c-3 -14 -5 -27 -5 -36c0 -16 7 -24 21 -24c6 0 14 0 19 2l5 -51c-21 -9 -40 -11 -61 -11c-41 0 -66 20 -66 59c0 13 2 27 5 43l45 214l-63 -20l15 72l64 20l37 177c14 67 13 118 4 150l83 32c13 -41 5 -122 -8 -182l-32 -150z" />
    <glyph glyph-name="oslash" unicode="&#xf8;" horiz-adv-x="531" 
d="M535 535l-73 -90c20 -30 30 -70 30 -117c0 -193 -114 -345 -277 -345c-43 0 -78 10 -105 30l-65 -79l-41 30s70 87 70 86c-18 30 -28 68 -28 113c0 198 119 346 277 346c42 0 76 -10 102 -27l67 83zM376 422c-18 17 -42 24 -67 24c-112 0 -178 -126 -178 -288
c0 -13 1 -24 3 -34zM407 337c0 14 -1 26 -4 36l-245 -301c16 -17 41 -25 72 -25c115 0 177 137 177 290z" />
    <glyph glyph-name="oe" unicode="&#x153;" horiz-adv-x="828" 
d="M801 383c0 -42 -18 -78 -46 -104c-42 -39 -106 -57 -215 -57c-19 0 -40 1 -62 2c-5 -23 -7 -44 -7 -63c0 -70 46 -107 99 -107c62 0 99 15 146 57l33 -48c-50 -51 -102 -74 -202 -74c-61 0 -113 29 -141 82c-48 -55 -114 -88 -191 -88c-108 0 -169 67 -169 180
c0 198 119 346 277 346c78 0 127 -33 151 -87c56 59 116 90 184 90c94 0 143 -51 143 -129zM722 381c0 38 -21 69 -76 69c-64 0 -129 -64 -155 -167c14 -1 36 -1 51 -1c90 0 129 12 155 38c16 16 25 36 25 61zM406 337c0 79 -45 108 -97 108c-112 0 -177 -125 -177 -287
c0 -78 35 -110 98 -110c115 0 176 136 176 289z" />
    <glyph glyph-name="germandbls" unicode="&#xdf;" horiz-adv-x="566" 
d="M523 580c0 -149 -190 -151 -190 -183c0 -39 171 -45 171 -197c0 -107 -87 -212 -235 -212c-39 0 -64 6 -88 17l24 55c20 -9 41 -15 65 -15c83 0 154 50 154 135c0 136 -163 109 -163 205c0 92 179 67 179 193c0 42 -32 71 -85 71c-71 0 -117 -50 -137 -152l-102 -511
c-18 -92 -38 -146 -76 -194l-65 35c31 43 48 89 64 166l91 446h-74l13 59h72l4 17c33 142 111 193 228 193c92 0 150 -54 150 -128z" />
    <glyph glyph-name="Ydieresis" unicode="&#x178;" horiz-adv-x="529" 
d="M526 781c0 -29 -23 -53 -51 -53c-29 0 -53 24 -53 53c0 28 23 51 52 51c28 0 52 -23 52 -51zM319 781c0 -29 -22 -53 -51 -53s-52 24 -52 53c0 28 23 51 51 51c29 0 52 -23 52 -51zM625 686l-312 -419l-57 -267h-85l58 272l-133 414h97l74 -262c6 -22 15 -54 19 -77
c15 23 33 49 53 77l188 262h98z" />
    <glyph glyph-name="trademark" unicode="&#x2122;" horiz-adv-x="934" 
d="M899 686l-50 -428h-69l39 311c0 3 1 5 1 8c-1 -3 -3 -5 -4 -8l-159 -311h-58l-25 299c-1 10 -1 19 -3 27c-1 -10 -4 -20 -6 -27l-87 -299h-68l129 428h90l23 -276c1 -13 2 -23 2 -33c5 11 9 20 14 31l140 278h91zM430 686l-17 -58h-116l-77 -370h-67l76 370h-115l11 58
h305z" />
    <glyph glyph-name="zcaron" unicode="&#x17e;" horiz-adv-x="402" 
d="M460 693l-197 -135l-144 135l36 44l120 -85l154 85zM414 436l-348 -376h276l-36 -60h-337v60l348 376h-234v62h331v-62z" />
    <glyph glyph-name="Zcaron" unicode="&#x17d;" horiz-adv-x="513" 
d="M548 863l-197 -135l-144 135l36 44l120 -85l154 85zM556 621l-392 -486c-20 -25 -36 -43 -56 -66c24 1 36 1 59 1h272l-26 -70h-409v63l401 489c18 21 39 47 58 66c-19 -1 -41 -1 -71 -1h-256l28 69h392v-65z" />
    <glyph glyph-name="scaron" unicode="&#x161;" horiz-adv-x="457" 
d="M474 693l-197 -135l-144 135l36 44l120 -85l154 85zM427 480l-32 -60c-39 21 -73 36 -117 36c-65 0 -113 -27 -113 -74c0 -34 12 -52 54 -70l63 -27c77 -33 105 -71 105 -126c0 -108 -92 -173 -217 -173c-63 0 -128 17 -172 48l32 60c45 -31 93 -47 148 -47
c69 0 121 33 121 84c0 41 -14 62 -63 84l-59 26c-69 30 -97 64 -97 122c0 90 82 155 203 155c52 0 107 -14 144 -38z" />
    <glyph glyph-name="Scaron" unicode="&#x160;" horiz-adv-x="551" 
d="M553 863l-197 -135l-144 135l36 44l120 -85l154 85zM558 642l-43 -61c-52 38 -92 53 -151 53c-92 0 -155 -49 -155 -115c0 -56 18 -81 87 -111l72 -31c84 -36 113 -91 113 -173c0 -120 -105 -217 -282 -217c-76 0 -133 17 -189 54l40 65c50 -35 95 -52 164 -52
c110 0 179 60 179 138c0 57 -18 89 -93 120l-62 26c-81 34 -117 82 -117 164c0 117 109 199 253 199c70 0 136 -22 184 -59z" />
    <glyph glyph-name="ydieresis" unicode="&#xff;" horiz-adv-x="451" 
d="M449 621c0 -29 -23 -53 -51 -53c-29 0 -53 24 -53 53c0 28 23 51 52 51c28 0 52 -23 52 -51zM242 621c0 -29 -22 -53 -51 -53s-52 24 -52 53c0 28 23 51 51 51c29 0 52 -23 52 -51zM497 498l-230 -422c-60 -110 -99 -195 -154 -238c-24 -19 -61 -36 -97 -43l-18 53
c29 3 65 25 88 46c22 20 43 53 64 106l-32 -4c1 32 -6 129 -12 179l-41 317l82 17l34 -319c5 -47 3 -124 3 -124h2s33 64 54 105l167 327h90z" />
    <glyph glyph-name="thorn" unicode="&#xfe;" horiz-adv-x="563" 
d="M517 345c0 -119 -48 -227 -116 -292c-45 -43 -104 -65 -161 -65c-37 0 -81 6 -121 20l-43 -201l-81 -15l163 761c13 59 14 119 4 152l83 32c11 -38 8 -101 -7 -173l-14 -67c-5 -25 -16 -63 -24 -92c42 59 115 104 182 104c91 0 135 -61 135 -164zM431 344
c0 59 -26 94 -81 94c-53 0 -108 -40 -164 -112l-51 -242c26 -22 58 -30 105 -30c37 0 85 24 108 50c53 60 83 164 83 240z" />
    <glyph glyph-name="yacute" unicode="&#xfd;" horiz-adv-x="451" 
d="M446 665l-225 -100l-26 47l208 130zM497 498l-230 -422c-60 -110 -99 -195 -154 -238c-24 -19 -61 -36 -97 -43l-18 53c29 3 65 25 88 46c22 20 43 53 64 106l-32 -4c1 32 -6 129 -12 179l-41 317l82 17l34 -319c5 -47 3 -124 3 -124h2s33 64 54 105l167 327h90z" />
    <glyph glyph-name="udieresis" unicode="&#xfc;" horiz-adv-x="547" 
d="M506 621c0 -29 -23 -53 -51 -53c-29 0 -53 24 -53 53c0 28 23 51 52 51c28 0 52 -23 52 -51zM299 621c0 -29 -22 -53 -51 -53s-52 24 -52 53c0 28 23 51 51 51c29 0 52 -23 52 -51zM515 506l-75 -353c-16 -75 -12 -91 13 -124l-61 -50c-28 27 -42 57 -37 110
c-62 -74 -128 -106 -190 -106c-66 0 -105 29 -105 100c0 24 4 54 8 73l72 338l80 15l-70 -335c-5 -26 -9 -48 -9 -65c0 -44 13 -59 49 -59c49 0 124 41 178 127l67 316z" />
    <glyph glyph-name="ucircumflex" unicode="&#xfb;" horiz-adv-x="547" 
d="M514 605l-36 -44l-120 85l-154 -85l-31 44l197 135zM515 506l-75 -353c-16 -75 -12 -91 13 -124l-61 -50c-28 27 -42 57 -37 110c-62 -74 -128 -106 -190 -106c-66 0 -105 29 -105 100c0 24 4 54 8 73l72 338l80 15l-70 -335c-5 -26 -9 -48 -9 -65c0 -44 13 -59 49 -59
c49 0 124 41 178 127l67 316z" />
    <glyph glyph-name="uacute" unicode="&#xfa;" horiz-adv-x="547" 
d="M530 665l-225 -100l-26 47l208 130zM515 506l-75 -353c-16 -75 -12 -91 13 -124l-61 -50c-28 27 -42 57 -37 110c-62 -74 -128 -106 -190 -106c-66 0 -105 29 -105 100c0 24 4 54 8 73l72 338l80 15l-70 -335c-5 -26 -9 -48 -9 -65c0 -44 13 -59 49 -59
c49 0 124 41 178 127l67 316z" />
    <glyph glyph-name="ugrave" unicode="&#xf9;" horiz-adv-x="547" 
d="M444 612l-26 -47l-223 100l43 77zM515 506l-75 -353c-16 -75 -12 -91 13 -124l-61 -50c-28 27 -42 57 -37 110c-62 -74 -128 -106 -190 -106c-66 0 -105 29 -105 100c0 24 4 54 8 73l72 338l80 15l-70 -335c-5 -26 -9 -48 -9 -65c0 -44 13 -59 49 -59
c49 0 124 41 178 127l67 316z" />
    <glyph glyph-name="divide" unicode="&#xf7;" horiz-adv-x="600" 
d="M415 472c0 -38 -30 -68 -67 -68s-67 29 -67 66c0 38 30 69 68 69c36 0 66 -30 66 -67zM564 300l-14 -65h-500l14 65h500zM335 56c0 -38 -30 -68 -68 -68c-37 0 -66 30 -66 67c0 38 30 68 68 68c36 0 66 -30 66 -67z" />
    <glyph glyph-name="odieresis" unicode="&#xf6;" horiz-adv-x="531" 
d="M495 621c0 -29 -23 -53 -51 -53c-29 0 -53 24 -53 53c0 28 23 51 52 51c28 0 52 -23 52 -51zM288 621c0 -29 -22 -53 -51 -53s-52 24 -52 53c0 28 23 51 51 51c29 0 52 -23 52 -51zM492 332c0 -193 -114 -345 -277 -345c-108 0 -169 67 -169 180c0 198 119 346 277 346
c116 0 169 -73 169 -181zM406 341c0 79 -45 108 -97 108c-112 0 -177 -125 -177 -287c0 -78 35 -110 98 -110c115 0 176 136 176 289z" />
    <glyph glyph-name="otilde" unicode="&#xf5;" horiz-adv-x="531" 
d="M522 656c-42 -41 -76 -63 -135 -63c-61 0 -61 37 -119 37c-32 0 -51 -17 -77 -39l-19 45c42 41 75 63 134 63c61 0 61 -37 119 -37c32 0 53 17 78 39zM492 332c0 -193 -114 -345 -277 -345c-108 0 -169 67 -169 180c0 198 119 346 277 346c116 0 169 -73 169 -181z
M406 341c0 79 -45 108 -97 108c-112 0 -177 -125 -177 -287c0 -78 35 -110 98 -110c115 0 176 136 176 289z" />
    <glyph glyph-name="ocircumflex" unicode="&#xf4;" horiz-adv-x="531" 
d="M504 605l-36 -44l-120 85l-154 -85l-31 44l197 135zM492 332c0 -193 -114 -345 -277 -345c-108 0 -169 67 -169 180c0 198 119 346 277 346c116 0 169 -73 169 -181zM406 341c0 79 -45 108 -97 108c-112 0 -177 -125 -177 -287c0 -78 35 -110 98 -110
c115 0 176 136 176 289z" />
    <glyph glyph-name="oacute" unicode="&#xf3;" horiz-adv-x="531" 
d="M517 665l-225 -100l-26 47l208 130zM492 332c0 -193 -114 -345 -277 -345c-108 0 -169 67 -169 180c0 198 119 346 277 346c116 0 169 -73 169 -181zM406 341c0 79 -45 108 -97 108c-112 0 -177 -125 -177 -287c0 -78 35 -110 98 -110c115 0 176 136 176 289z" />
    <glyph glyph-name="ograve" unicode="&#xf2;" horiz-adv-x="531" 
d="M429 612l-26 -47l-223 100l43 77zM492 332c0 -193 -114 -345 -277 -345c-108 0 -169 67 -169 180c0 198 119 346 277 346c116 0 169 -73 169 -181zM406 341c0 79 -45 108 -97 108c-112 0 -177 -125 -177 -287c0 -78 35 -110 98 -110c115 0 176 136 176 289z" />
    <glyph glyph-name="ntilde" unicode="&#xf1;" horiz-adv-x="546" 
d="M513 656c-42 -41 -76 -63 -135 -63c-61 0 -61 37 -119 37c-32 0 -51 -17 -77 -39l-19 45c42 41 75 63 134 63c61 0 61 -37 119 -37c32 0 53 17 78 39zM490 410c0 -10 -1 -21 -3 -32l-81 -378h-79l72 337c6 26 8 42 8 54c0 33 -17 50 -48 50c-40 0 -107 -32 -174 -116
l-69 -325h-76l76 356c14 64 14 85 4 123l73 34c11 -32 18 -59 5 -110c54 72 129 106 193 106c61 0 99 -38 99 -99z" />
    <glyph glyph-name="eth" unicode="&#xf0;" horiz-adv-x="522" 
d="M486 371c0 -172 -80 -385 -283 -385c-119 0 -177 95 -177 199c0 152 117 280 262 280c49 0 83 -10 107 -22c-9 64 -39 117 -93 160l-64 -59l-43 36l60 55c-32 19 -71 35 -115 48l51 48c45 -12 85 -27 119 -45l54 50l43 -36l-48 -44c87 -63 127 -172 127 -285zM396 374
c-25 18 -71 30 -117 30c-102 0 -166 -104 -166 -217c0 -72 36 -136 100 -136c86 0 145 76 171 200c7 35 12 87 12 123z" />
    <glyph glyph-name="idieresis" unicode="&#xef;" horiz-adv-x="263" 
d="M356 621c0 -29 -23 -53 -51 -53c-29 0 -53 24 -53 53c0 28 23 51 52 51c28 0 52 -23 52 -51zM149 621c0 -29 -22 -53 -51 -53s-52 24 -52 53c0 28 23 51 51 51c29 0 52 -23 52 -51zM232 509l-108 -509h-84l106 496z" />
    <glyph glyph-name="icircumflex" unicode="&#xee;" horiz-adv-x="263" 
d="M381 605l-36 -44l-120 85l-154 -85l-31 44l197 135zM242 509l-108 -509h-84l106 496z" />
    <glyph glyph-name="iacute" unicode="&#xed;" horiz-adv-x="263" 
d="M382 665l-225 -100l-26 47l208 130zM232 509l-108 -509h-84l106 496z" />
    <glyph glyph-name="igrave" unicode="&#xec;" horiz-adv-x="263" 
d="M289 612l-26 -47l-223 100l43 77zM249 509l-108 -509h-84l106 496z" />
    <glyph glyph-name="edieresis" unicode="&#xeb;" horiz-adv-x="498" 
d="M500 621c0 -29 -23 -53 -51 -53c-29 0 -53 24 -53 53c0 28 23 51 52 51c28 0 52 -23 52 -51zM293 621c0 -29 -22 -53 -51 -53s-52 24 -52 53c0 28 23 51 51 51c29 0 52 -23 52 -51zM471 383c0 -42 -18 -78 -46 -104c-42 -39 -106 -57 -215 -57c-19 0 -40 1 -62 2
c-5 -23 -7 -44 -7 -63c0 -70 46 -107 99 -107c62 0 99 15 146 57l33 -48c-50 -51 -102 -74 -202 -74c-92 0 -163 66 -163 180c0 96 37 206 110 273c50 47 104 70 164 70c94 0 143 -51 143 -129zM392 381c0 38 -21 69 -76 69c-64 0 -129 -64 -155 -167c14 -1 36 -1 51 -1
c90 0 129 12 155 38c16 16 25 36 25 61z" />
    <glyph glyph-name="ecircumflex" unicode="&#xea;" horiz-adv-x="498" 
d="M505 605l-36 -44l-120 85l-154 -85l-31 44l197 135zM471 383c0 -42 -18 -78 -46 -104c-42 -39 -106 -57 -215 -57c-19 0 -40 1 -62 2c-5 -23 -7 -44 -7 -63c0 -70 46 -107 99 -107c62 0 99 15 146 57l33 -48c-50 -51 -102 -74 -202 -74c-92 0 -163 66 -163 180
c0 96 37 206 110 273c50 47 104 70 164 70c94 0 143 -51 143 -129zM392 381c0 38 -21 69 -76 69c-64 0 -129 -64 -155 -167c14 -1 36 -1 51 -1c90 0 129 12 155 38c16 16 25 36 25 61z" />
    <glyph glyph-name="eacute" unicode="&#xe9;" horiz-adv-x="498" 
d="M529 665l-225 -100l-26 47l208 130zM471 383c0 -42 -18 -78 -46 -104c-42 -39 -106 -57 -215 -57c-19 0 -40 1 -62 2c-5 -23 -7 -44 -7 -63c0 -70 46 -107 99 -107c62 0 99 15 146 57l33 -48c-50 -51 -102 -74 -202 -74c-92 0 -163 66 -163 180c0 96 37 206 110 273
c50 47 104 70 164 70c94 0 143 -51 143 -129zM392 381c0 38 -21 69 -76 69c-64 0 -129 -64 -155 -167c14 -1 36 -1 51 -1c90 0 129 12 155 38c16 16 25 36 25 61z" />
    <glyph glyph-name="egrave" unicode="&#xe8;" horiz-adv-x="498" 
d="M432 612l-26 -47l-223 100l43 77zM471 383c0 -42 -18 -78 -46 -104c-42 -39 -106 -57 -215 -57c-19 0 -40 1 -62 2c-5 -23 -7 -44 -7 -63c0 -70 46 -107 99 -107c62 0 99 15 146 57l33 -48c-50 -51 -102 -74 -202 -74c-92 0 -163 66 -163 180c0 96 37 206 110 273
c50 47 104 70 164 70c94 0 143 -51 143 -129zM392 381c0 38 -21 69 -76 69c-64 0 -129 -64 -155 -167c14 -1 36 -1 51 -1c90 0 129 12 155 38c16 16 25 36 25 61z" />
    <glyph glyph-name="ccedilla" unicode="&#xe7;" horiz-adv-x="440" 
d="M450 469l-37 -61c-31 26 -65 35 -101 35c-39 0 -80 -22 -106 -56c-35 -47 -70 -151 -70 -228c0 -70 31 -108 94 -108c40 0 82 19 119 54l32 -50c-56 -47 -104 -66 -166 -66h-3l-15 -31c50 -7 58 -36 50 -72c-8 -38 -52 -83 -116 -83c-30 0 -59 13 -77 24l31 47
c24 -12 36 -16 58 -16c18 0 38 11 42 30c5 20 -14 29 -31 29c-18 0 -39 -2 -39 -2l39 81c-69 19 -102 74 -102 162c0 113 61 242 128 296c47 39 96 57 149 57c50 0 89 -14 121 -42z" />
    <glyph glyph-name="aring" unicode="&#xe5;" horiz-adv-x="520" 
d="M448 659c0 -58 -47 -106 -105 -106c-57 0 -105 48 -105 106s49 106 106 106s104 -48 104 -106zM484 471c-7 -24 -19 -71 -26 -104l-43 -206c-18 -84 -8 -105 17 -132l-62 -48c-30 31 -41 60 -37 109c-34 -60 -96 -99 -173 -99c-61 0 -119 48 -119 158
c0 98 38 212 104 279c52 53 122 84 199 84c54 0 102 -14 140 -41zM402 659c0 32 -26 60 -57 60c-34 0 -62 -28 -62 -60s29 -60 60 -60c32 0 59 28 59 60zM397 435c-15 9 -36 14 -60 14c-62 0 -103 -22 -145 -72c-50 -60 -70 -155 -70 -229c0 -66 25 -90 72 -90
c53 0 113 50 149 120z" />
    <glyph glyph-name="adieresis" unicode="&#xe4;" horiz-adv-x="520" 
d="M507 621c0 -29 -23 -53 -51 -53c-29 0 -53 24 -53 53c0 28 23 51 52 51c28 0 52 -23 52 -51zM300 621c0 -29 -22 -53 -51 -53s-52 24 -52 53c0 28 23 51 51 51c29 0 52 -23 52 -51zM484 471c-7 -24 -19 -71 -26 -104l-43 -206c-18 -84 -8 -105 17 -132l-62 -48
c-30 31 -41 60 -37 109c-34 -60 -96 -99 -173 -99c-61 0 -119 48 -119 158c0 98 38 212 104 279c52 53 122 84 199 84c54 0 102 -14 140 -41zM397 435c-15 9 -36 14 -60 14c-62 0 -103 -22 -145 -72c-50 -60 -70 -155 -70 -229c0 -66 25 -90 72 -90c53 0 113 50 149 120z
" />
    <glyph glyph-name="atilde" unicode="&#xe3;" horiz-adv-x="520" 
d="M532 656c-42 -41 -76 -63 -135 -63c-61 0 -61 37 -119 37c-32 0 -51 -17 -77 -39l-19 45c42 41 75 63 134 63c61 0 61 -37 119 -37c32 0 53 17 78 39zM484 471c-7 -24 -19 -71 -26 -104l-43 -206c-18 -84 -8 -105 17 -132l-62 -48c-30 31 -41 60 -37 109
c-34 -60 -96 -99 -173 -99c-61 0 -119 48 -119 158c0 98 38 212 104 279c52 53 122 84 199 84c54 0 102 -14 140 -41zM397 435c-15 9 -36 14 -60 14c-62 0 -103 -22 -145 -72c-50 -60 -70 -155 -70 -229c0 -66 25 -90 72 -90c53 0 113 50 149 120z" />
    <glyph glyph-name="acircumflex" unicode="&#xe2;" horiz-adv-x="520" 
d="M527 605l-36 -44l-120 85l-154 -85l-31 44l197 135zM484 471c-7 -24 -19 -71 -26 -104l-43 -206c-18 -84 -8 -105 17 -132l-62 -48c-30 31 -41 60 -37 109c-34 -60 -96 -99 -173 -99c-61 0 -119 48 -119 158c0 98 38 212 104 279c52 53 122 84 199 84
c54 0 102 -14 140 -41zM397 435c-15 9 -36 14 -60 14c-62 0 -103 -22 -145 -72c-50 -60 -70 -155 -70 -229c0 -66 25 -90 72 -90c53 0 113 50 149 120z" />
    <glyph glyph-name="aacute" unicode="&#xe1;" horiz-adv-x="520" 
d="M523 665l-225 -100l-26 47l208 130zM484 471c-7 -24 -19 -71 -26 -104l-43 -206c-18 -84 -8 -105 17 -132l-62 -48c-30 31 -41 60 -37 109c-34 -60 -96 -99 -173 -99c-61 0 -119 48 -119 158c0 98 38 212 104 279c52 53 122 84 199 84c54 0 102 -14 140 -41zM397 435
c-15 9 -36 14 -60 14c-62 0 -103 -22 -145 -72c-50 -60 -70 -155 -70 -229c0 -66 25 -90 72 -90c53 0 113 50 149 120z" />
    <glyph glyph-name="agrave" unicode="&#xe0;" horiz-adv-x="520" 
d="M452 612l-26 -47l-223 100l43 77zM484 471c-7 -24 -19 -71 -26 -104l-43 -206c-18 -84 -8 -105 17 -132l-62 -48c-30 31 -41 60 -37 109c-34 -60 -96 -99 -173 -99c-61 0 -119 48 -119 158c0 98 38 212 104 279c52 53 122 84 199 84c54 0 102 -14 140 -41zM397 435
c-15 9 -36 14 -60 14c-62 0 -103 -22 -145 -72c-50 -60 -70 -155 -70 -229c0 -66 25 -90 72 -90c53 0 113 50 149 120z" />
    <glyph glyph-name="Thorn" unicode="&#xde;" horiz-adv-x="547" 
d="M550 417c0 -80 -29 -151 -96 -204c-42 -34 -98 -50 -179 -50h-120l-35 -163h-80l146 686h80l-23 -110h98c158 0 209 -76 209 -159zM461 398c0 72 -37 109 -146 109h-87l-59 -277h115c58 0 87 11 115 37c42 38 62 87 62 131z" />
    <glyph glyph-name="Yacute" unicode="&#xdd;" horiz-adv-x="529" 
d="M515 825l-225 -100l-26 47l208 130zM625 686l-312 -419l-57 -267h-85l58 272l-133 414h97l74 -262c6 -22 15 -54 19 -77c15 23 33 49 53 77l188 262h98z" />
    <glyph glyph-name="Udieresis" unicode="&#xdc;" horiz-adv-x="625" 
d="M579 781c0 -29 -23 -53 -51 -53c-29 0 -53 24 -53 53c0 28 23 51 52 51c28 0 52 -23 52 -51zM372 781c0 -29 -22 -53 -51 -53s-52 24 -52 53c0 28 23 51 51 51c29 0 52 -23 52 -51zM636 686l-101 -477c-21 -98 -36 -134 -86 -171c-50 -36 -105 -50 -183 -50
c-111 0 -192 44 -192 147c0 19 2 57 9 91l98 460h81l-93 -439c-12 -57 -15 -86 -15 -105c0 -53 44 -84 121 -84c57 0 103 15 130 43s37 53 51 117l99 468h81z" />
    <glyph glyph-name="Ucircumflex" unicode="&#xdb;" horiz-adv-x="625" 
d="M584 765l-36 -44l-120 85l-154 -85l-31 44l197 135zM636 686l-101 -477c-21 -98 -36 -134 -86 -171c-50 -36 -105 -50 -183 -50c-111 0 -192 44 -192 147c0 19 2 57 9 91l98 460h81l-93 -439c-12 -57 -15 -86 -15 -105c0 -53 44 -84 121 -84c57 0 103 15 130 43
s37 53 51 117l99 468h81z" />
    <glyph glyph-name="Uacute" unicode="&#xda;" horiz-adv-x="625" 
d="M578 825l-225 -100l-26 47l208 130zM636 686l-101 -477c-21 -98 -36 -134 -86 -171c-50 -36 -105 -50 -183 -50c-111 0 -192 44 -192 147c0 19 2 57 9 91l98 460h81l-93 -439c-12 -57 -15 -86 -15 -105c0 -53 44 -84 121 -84c57 0 103 15 130 43s37 53 51 117l99 468h81z
" />
    <glyph glyph-name="Ugrave" unicode="&#xd9;" horiz-adv-x="625" 
d="M502 772l-26 -47l-223 100l43 77zM636 686l-101 -477c-21 -98 -36 -134 -86 -171c-50 -36 -105 -50 -183 -50c-111 0 -192 44 -192 147c0 19 2 57 9 91l98 460h81l-93 -439c-12 -57 -15 -86 -15 -105c0 -53 44 -84 121 -84c57 0 103 15 130 43s37 53 51 117l99 468h81z
" />
    <glyph glyph-name="multiply" unicode="&#xd7;" horiz-adv-x="493" 
d="M453 376l-153 -126l99 -126l-62 -51l-99 126l-153 -126l-40 51l153 126l-99 126l62 51l99 -126l153 126z" />
    <glyph glyph-name="Odieresis" unicode="&#xd6;" horiz-adv-x="676" 
d="M603 784c0 -29 -23 -53 -51 -53c-29 0 -53 24 -53 53c0 28 23 51 52 51c28 0 52 -23 52 -51zM396 784c0 -29 -22 -53 -51 -53s-52 24 -52 53c0 28 23 51 51 51c29 0 52 -23 52 -51zM649 466c0 -162 -55 -333 -165 -417c-60 -46 -116 -62 -198 -62
c-142 0 -214 94 -214 243c0 148 57 299 135 378c60 61 126 90 227 90c135 0 215 -84 215 -232zM560 474c0 96 -42 158 -140 158c-72 0 -128 -31 -164 -80c-56 -75 -94 -200 -94 -341c0 -111 52 -161 142 -161c58 0 101 21 140 59c68 68 116 243 116 365z" />
    <glyph glyph-name="Otilde" unicode="&#xd5;" horiz-adv-x="676" 
d="M605 816c-42 -41 -76 -63 -135 -63c-61 0 -61 37 -119 37c-32 0 -51 -17 -77 -39l-19 45c42 41 75 63 134 63c61 0 61 -37 119 -37c32 0 53 17 78 39zM649 466c0 -162 -55 -333 -165 -417c-60 -46 -116 -62 -198 -62c-142 0 -214 94 -214 243c0 148 57 299 135 378
c60 61 126 90 227 90c135 0 215 -84 215 -232zM560 474c0 96 -42 158 -140 158c-72 0 -128 -31 -164 -80c-56 -75 -94 -200 -94 -341c0 -111 52 -161 142 -161c58 0 101 21 140 59c68 68 116 243 116 365z" />
    <glyph glyph-name="Ocircumflex" unicode="&#xd4;" horiz-adv-x="676" 
d="M599 765l-36 -44l-120 85l-154 -85l-31 44l197 135zM649 466c0 -162 -55 -333 -165 -417c-60 -46 -116 -62 -198 -62c-142 0 -214 94 -214 243c0 148 57 299 135 378c60 61 126 90 227 90c135 0 215 -84 215 -232zM560 474c0 96 -42 158 -140 158
c-72 0 -128 -31 -164 -80c-56 -75 -94 -200 -94 -341c0 -111 52 -161 142 -161c58 0 101 21 140 59c68 68 116 243 116 365z" />
    <glyph glyph-name="Oacute" unicode="&#xd3;" horiz-adv-x="676" 
d="M594 825l-225 -100l-26 47l208 130zM649 466c0 -162 -55 -333 -165 -417c-60 -46 -116 -62 -198 -62c-142 0 -214 94 -214 243c0 148 57 299 135 378c60 61 126 90 227 90c135 0 215 -84 215 -232zM560 474c0 96 -42 158 -140 158c-72 0 -128 -31 -164 -80
c-56 -75 -94 -200 -94 -341c0 -111 52 -161 142 -161c58 0 101 21 140 59c68 68 116 243 116 365z" />
    <glyph glyph-name="Ograve" unicode="&#xd2;" horiz-adv-x="676" 
d="M522 772l-26 -47l-223 100l43 77zM649 466c0 -162 -55 -333 -165 -417c-60 -46 -116 -62 -198 -62c-142 0 -214 94 -214 243c0 148 57 299 135 378c60 61 126 90 227 90c135 0 215 -84 215 -232zM560 474c0 96 -42 158 -140 158c-72 0 -128 -31 -164 -80
c-56 -75 -94 -200 -94 -341c0 -111 52 -161 142 -161c58 0 101 21 140 59c68 68 116 243 116 365z" />
    <glyph glyph-name="Ntilde" unicode="&#xd1;" horiz-adv-x="636" 
d="M600 819c-42 -41 -76 -63 -135 -63c-61 0 -61 37 -119 37c-32 0 -51 -17 -77 -39l-19 45c42 41 75 63 134 63c61 0 61 -37 119 -37c32 0 53 17 78 39zM642 686l-146 -686h-86l-131 420c-26 83 -43 165 -43 165s-12 -98 -30 -187l-81 -398h-85l146 686h95l135 -438
c21 -68 33 -144 33 -144s16 110 36 209l76 373h81z" />
    <glyph glyph-name="Eth" unicode="&#xd0;" horiz-adv-x="625" 
d="M599 433c0 -119 -67 -281 -144 -350c-65 -59 -133 -83 -236 -83h-179l68 321h-84l13 59h84l65 306h147c101 0 149 -11 198 -53c46 -39 68 -105 68 -200zM510 423c0 62 -7 103 -27 134c-33 53 -75 62 -147 62h-82l-51 -239h159l-37 -59h-134l-54 -253h73
c93 0 157 21 198 71c68 84 102 207 102 284z" />
    <glyph glyph-name="Idieresis" unicode="&#xcf;" horiz-adv-x="260" 
d="M384 781c0 -29 -23 -53 -51 -53c-29 0 -53 24 -53 53c0 28 23 51 52 51c28 0 52 -23 52 -51zM177 781c0 -29 -22 -53 -51 -53s-52 24 -52 53c0 28 23 51 51 51c29 0 52 -23 52 -51zM266 686l-146 -686h-80l146 686h80z" />
    <glyph glyph-name="Icircumflex" unicode="&#xce;" horiz-adv-x="260" 
d="M399 765l-36 -44l-120 85l-154 -85l-31 44l197 135zM266 686l-146 -686h-80l146 686h80z" />
    <glyph glyph-name="Iacute" unicode="&#xcd;" horiz-adv-x="260" 
d="M414 825l-225 -100l-26 47l208 130zM266 686l-146 -686h-80l146 686h80z" />
    <glyph glyph-name="Igrave" unicode="&#xcc;" horiz-adv-x="260" 
d="M295 772l-26 -47l-223 100l43 77zM266 686l-146 -686h-80l146 686h80z" />
    <glyph glyph-name="Edieresis" unicode="&#xcb;" horiz-adv-x="502" 
d="M539 781c0 -29 -23 -53 -51 -53c-29 0 -53 24 -53 53c0 28 23 51 52 51c28 0 52 -23 52 -51zM332 781c0 -29 -22 -53 -51 -53s-52 24 -52 53c0 28 23 51 51 51c29 0 52 -23 52 -51zM561 686l-26 -68h-281l-47 -225h235l-16 -71h-235l-53 -251h302l-15 -71h-385l146 686
h375z" />
    <glyph glyph-name="Ecircumflex" unicode="&#xca;" horiz-adv-x="502" 
d="M548 765l-36 -44l-120 85l-154 -85l-31 44l197 135zM561 686l-26 -68h-281l-47 -225h235l-16 -71h-235l-53 -251h302l-15 -71h-385l146 686h375z" />
    <glyph glyph-name="Eacute" unicode="&#xc9;" horiz-adv-x="502" 
d="M530 825l-225 -100l-26 47l208 130zM561 686l-26 -68h-281l-47 -225h235l-16 -71h-235l-53 -251h302l-15 -71h-385l146 686h375z" />
    <glyph glyph-name="Egrave" unicode="&#xc8;" horiz-adv-x="502" 
d="M480 772l-26 -47l-223 100l43 77zM561 686l-26 -68h-281l-47 -225h235l-16 -71h-235l-53 -251h302l-15 -71h-385l146 686h375z" />
    <glyph glyph-name="Ccedilla" unicode="&#xc7;" horiz-adv-x="553" 
d="M600 638l-46 -51c-35 30 -71 42 -121 42c-79 0 -147 -41 -196 -118c-51 -78 -81 -190 -81 -278c0 -109 55 -175 162 -175c51 0 92 13 143 44l32 -57c-63 -36 -135 -56 -203 -56c-6 0 -11 1 -17 1l-15 -32c50 -7 58 -36 50 -72c-8 -38 -52 -83 -116 -83
c-30 0 -59 13 -77 24l31 47c24 -12 36 -16 58 -16c18 0 38 11 42 30c5 20 -14 29 -31 29c-18 0 -39 -2 -39 -2l41 85c-93 29 -146 116 -146 237c0 115 42 250 124 341c66 74 159 117 247 117c64 0 119 -21 158 -57z" />
    <glyph glyph-name="Aring" unicode="&#xc5;" horiz-adv-x="563" 
d="M496 819c0 -58 -47 -106 -105 -106c-57 0 -105 48 -105 106s49 106 106 106s104 -48 104 -106zM513 0h-89l-20 211h-256l-111 -211h-87l375 686h107zM450 819c0 32 -26 60 -57 60c-34 0 -62 -28 -62 -60s29 -60 60 -60c32 0 59 28 59 60zM397 278l-35 338
s-25 -51 -43 -85l-135 -253h213z" />
    <glyph glyph-name="Adieresis" unicode="&#xc4;" horiz-adv-x="563" 
d="M540 781c0 -29 -23 -53 -51 -53c-29 0 -53 24 -53 53c0 28 23 51 52 51c28 0 52 -23 52 -51zM333 781c0 -29 -22 -53 -51 -53s-52 24 -52 53c0 28 23 51 51 51c29 0 52 -23 52 -51zM513 0h-89l-20 211h-256l-111 -211h-87l375 686h107zM397 278l-35 338s-25 -51 -43 -85
l-135 -253h213z" />
    <glyph glyph-name="Atilde" unicode="&#xc3;" horiz-adv-x="563" 
d="M552 816c-42 -41 -76 -63 -135 -63c-61 0 -61 37 -119 37c-32 0 -51 -17 -77 -39l-19 45c42 41 75 63 134 63c61 0 61 -37 119 -37c32 0 53 17 78 39zM513 0h-89l-20 211h-256l-111 -211h-87l375 686h107zM397 278l-35 338s-25 -51 -43 -85l-135 -253h213z" />
    <glyph glyph-name="Acircumflex" unicode="&#xc2;" horiz-adv-x="563" 
d="M547 765l-36 -44l-120 85l-154 -85l-31 44l197 135zM513 0h-89l-20 211h-256l-111 -211h-87l375 686h107zM397 278l-35 338s-25 -51 -43 -85l-135 -253h213z" />
    <glyph glyph-name="Aacute" unicode="&#xc1;" horiz-adv-x="563" 
d="M548 825l-225 -100l-26 47l208 130zM513 0h-89l-20 211h-256l-111 -211h-87l375 686h107zM397 278l-35 338s-25 -51 -43 -85l-135 -253h213z" />
    <glyph glyph-name="Agrave" unicode="&#xc0;" horiz-adv-x="563" 
d="M456 772l-26 -47l-223 100l43 77zM513 0h-89l-20 211h-256l-111 -211h-87l375 686h107zM397 278l-35 338s-25 -51 -43 -85l-135 -253h213z" />
    <glyph glyph-name="mu" unicode="&#x3bc;" horiz-adv-x="555" 
d="M523 506l-75 -353c-17 -81 -13 -96 8 -121l-61 -53c-28 27 -37 47 -37 80c-49 -51 -106 -76 -174 -76c-25 0 -51 6 -63 19c-5 -22 -42 -196 -42 -195l-81 -15l148 702l83 16l-77 -359c-10 -49 -8 -69 12 -84c14 -11 36 -17 58 -17c49 0 108 36 146 90l75 353z" />
    <glyph glyph-name="plusminus" unicode="&#xb1;" horiz-adv-x="468" 
d="M447 365l-16 -71h-150l-29 -140h-71l29 140h-150l16 71h150l28 133h71l-28 -133h150zM390 107l-15 -71h-367l15 71h367z" />
    <glyph glyph-name="degree" unicode="&#xb0;" horiz-adv-x="380" 
d="M399 530c0 -81 -66 -148 -147 -148c-80 0 -147 67 -147 148s69 148 148 148c80 0 146 -67 146 -148zM339 530c0 47 -39 88 -84 88c-50 0 -91 -41 -91 -88s43 -88 88 -88c47 0 87 41 87 88z" />
    <glyph glyph-name="registered" unicode="&#xae;" horiz-adv-x="880" 
d="M838 354c0 -212 -170 -372 -372 -372c-203 0 -372 160 -372 372s169 372 372 372c202 0 372 -160 372 -372zM772 354c0 180 -136 318 -306 318c-171 0 -306 -138 -306 -318s135 -318 306 -318c170 0 306 138 306 318zM622 150h-70c-12 23 -18 33 -34 61
c-32 53 -42 70 -72 103c-11 12 -20 18 -37 19v-183h-58v413h116c49 0 78 -11 98 -30c19 -17 37 -45 37 -85c0 -64 -42 -116 -111 -114c19 -15 29 -28 36 -38c9 -11 21 -29 35 -51c18 -28 52 -82 60 -95zM541 447c0 29 -16 52 -38 61c-12 5 -29 8 -51 8h-43v-144h40
c37 0 57 6 72 19c12 12 20 32 20 56z" />
    <glyph glyph-name="logicalnot" unicode="&#xac;" horiz-adv-x="489" 
d="M450 288l-45 -211h-71l30 140h-318l15 71h389z" />
    <glyph glyph-name="copyright" unicode="&#xa9;" horiz-adv-x="880" 
d="M838 354c0 -212 -170 -372 -372 -372c-203 0 -372 160 -372 372s169 372 372 372c202 0 372 -160 372 -372zM772 354c0 180 -136 318 -306 318c-171 0 -306 -138 -306 -318s135 -318 306 -318c170 0 306 138 306 318zM592 173c-32 -23 -69 -35 -111 -35
c-54 0 -98 23 -129 62c-29 38 -45 88 -45 148c0 48 10 89 27 123c31 59 85 95 149 95c39 0 76 -12 101 -33l-28 -38c-23 17 -45 24 -73 24c-41 0 -73 -21 -92 -59c-13 -26 -20 -61 -20 -111c0 -46 5 -73 15 -97c20 -46 58 -67 102 -67c32 0 54 8 76 25z" />
    <glyph glyph-name="brokenbar" unicode="&#xa6;" horiz-adv-x="245" 
d="M266 756l-87 -410h-66l87 410h66zM149 202l-87 -410h-66l87 410h66z" />
    <glyph glyph-name="minus" unicode="&#x2212;" horiz-adv-x="585" 
d="M551 309l-12 -59h-485l12 59h485z" />
    <glyph glyph-name="threesuperior" unicode="&#xb3;" horiz-adv-x="346" 
d="M376 577c0 -48 -31 -86 -74 -105c29 -14 47 -38 47 -70c0 -67 -68 -120 -125 -142c-32 -12 -78 -20 -122 -20c-15 0 -19 0 -36 3l-6 51c15 -2 29 -4 44 -4c51 0 91 7 131 36c24 17 42 45 42 75c0 21 -11 36 -32 42c-15 4 -20 5 -69 5h-16l11 51h16c44 0 64 1 77 6
c21 8 39 33 39 56c0 24 -20 41 -53 41c-38 0 -70 -16 -104 -37l-26 37c43 32 102 57 152 57c62 0 104 -32 104 -82z" />
    <glyph glyph-name="twosuperior" unicode="&#xb2;" horiz-adv-x="336" 
d="M366 568c0 -77 -79 -146 -133 -191c-28 -23 -58 -46 -79 -62c7 0 17 1 24 1h140l-26 -56h-247l8 40c30 18 64 42 111 83c40 35 124 108 124 169c0 29 -19 49 -50 49c-36 0 -69 -22 -102 -39l-26 35c63 44 110 62 156 62c59 0 100 -38 100 -91z" />
    <glyph glyph-name="onesuperior" unicode="&#xb9;" horiz-adv-x="314" 
d="M304 652l-72 -337h60l-12 -55h-190l12 55h62l54 256c-32 -18 -65 -30 -99 -43l-8 41l142 83h51z" />
    <glyph glyph-name="threequarters" unicode="&#xbe;" horiz-adv-x="985" 
d="M921 125l-12 -54h-43h-6c-1 -4 0 -8 -1 -12l-13 -60l-71 -18l17 77c1 4 2 9 3 13h-14h-165l10 47l205 275h75c-37 -50 -133 -185 -202 -269l7 1h93h3v6c0 10 5 19 9 32l31 108l60 17l-32 -155l-3 -8h4h45zM931 763l-721 -917h-66l721 917h66zM375 577
c0 -46 -33 -87 -74 -105c29 -14 47 -38 47 -70c0 -67 -68 -120 -125 -142c-32 -12 -78 -20 -122 -20c-15 0 -19 0 -36 3l-6 51c15 -2 29 -4 44 -4c51 0 91 7 131 36c24 17 42 45 42 75c0 21 -12 36 -33 42c-15 4 -19 5 -68 5h-16l10 51h16c44 0 65 1 78 6c22 9 38 32 38 56
s-19 41 -52 41c-38 0 -71 -16 -105 -37l-25 37c43 32 101 57 151 57c62 0 105 -32 105 -82z" />
    <glyph glyph-name="onehalf" unicode="&#xbd;" horiz-adv-x="912" 
d="M885 308c0 -79 -76 -145 -132 -191c-28 -23 -59 -46 -80 -62c7 0 18 1 25 1h140l-27 -56h-247l9 40c30 18 63 42 110 83c40 35 125 108 125 169c0 29 -19 49 -50 49c-36 0 -70 -22 -103 -39l-25 35c63 44 110 62 156 62c59 0 99 -38 99 -91zM870 763l-721 -917h-66
l721 917h66zM305 652l-72 -337h60l-11 -55h-190l11 55h62l55 256c-32 -18 -65 -30 -99 -43l-9 41l142 83h51z" />
    <glyph glyph-name="onequarter" unicode="&#xbc;" horiz-adv-x="942" 
d="M878 125l-12 -54h-43h-6c-1 -4 0 -8 -1 -12l-13 -60l-71 -18l17 77c1 4 2 9 3 13h-14h-165l10 47l205 275h75c-37 -50 -133 -185 -202 -269l7 1h93h3v6c0 10 5 19 9 32l31 108l60 17l-32 -155l-3 -8h4h45zM889 763l-721 -917h-66l721 917h66zM305 652l-72 -337h60
l-11 -55h-190l11 55h62l55 256c-32 -18 -65 -30 -99 -43l-9 41l142 83h51z" />
    <glyph glyph-name="nbspace" unicode="&#xa0;" horiz-adv-x="225" 
 />
    <glyph glyph-name="Euro" unicode="&#x20ac;" horiz-adv-x="631" 
d="M667 648l-28 -69c-35 30 -63 50 -128 50c-79 0 -134 -41 -184 -118c-15 -23 -28 -49 -39 -79h269l-12 -59h-277c-8 -29 -12 -51 -17 -80h277l-13 -59h-269c-2 -100 40 -178 161 -178c51 0 95 17 144 44l-2 -73c-43 -21 -101 -38 -169 -38c-142 0 -219 108 -218 245h-112
l13 59h104c4 27 9 54 16 80h-103l12 59h111c59 160 169 263 323 263c83 0 124 -31 141 -47z" />
    </font>
</defs>
</svg>
